<svg width="234" height="41" viewBox="0 0 234 41" fill="none" xmlns="http://www.w3.org/2000/svg">
<g clip-path="url(#clip0_1_24)">
<path d="M229.321 14.9866L233.534 8.00161L231.197 0.500961H70.6001L69.8484 5.97412L68.3601 0.500961H30.9327L29.6436 5.65442H26.5322L25.7943 8.50502L21.6627 0.500961H9.4658L0.169983 30.3388L7.57727 40.4989H19.7586L21.2489 34.8618H26.1688L29.4679 40.4989H67.0682L67.9637 33.961L70.0446 40.4989H195.666L200.751 29.9597H205.35L209.622 21.5997L214.183 40.4992H226.829L233.83 30.3225L229.321 14.9866ZM120.78 22.0651L120.796 18.5035H131.6L131.71 22.0651H120.78Z" fill="black"/>
<path d="M8.632 38.4248L2.46059 29.9599H12.4219L18.0713 38.4249L8.632 38.4248Z" fill="#3D3938"/>
<path d="M48.9448 29.9599H38.9839L43.2432 38.4249H52.6825L48.9448 29.9599Z" fill="#3D3938"/>
<path d="M52.2652 29.9599L55.829 38.4249H65.2685L62.226 29.9599H52.2652Z" fill="#3D3938"/>
<path d="M82.1479 29.9599L84.1472 38.4249H106.172L105.39 29.9599H82.1479Z" fill="#3D3938"/>
<path d="M131.953 29.9599L131.344 38.4249H109.319L108.71 29.9599H131.953Z" fill="#3D3938"/>
<path d="M135.273 29.9599H145.233L143.93 38.4249H134.491L135.273 29.9599Z" fill="#3D3938"/>
<path d="M148.554 29.9599L147.077 38.4249H156.516L158.515 29.9599H148.554Z" fill="#3D3938"/>
<path d="M161.835 29.9599L159.662 38.4248L169.102 38.4249L171.796 29.9599H161.835Z" fill="#3D3938"/>
<path d="M175.116 29.9599L172.248 38.4249H181.688L185.077 29.9599H175.116Z" fill="#3D3938"/>
<path d="M188.397 29.9599L184.834 38.4249H194.274L198.359 29.9599H188.397Z" fill="#3D3938"/>
<path d="M221.6 29.9599L216.299 38.4249H225.738L231.561 29.9599H221.6Z" fill="#3D3938"/>
<path d="M68.8666 29.9599L71.5613 38.4249H81.0008L78.8275 29.9599H68.8666Z" fill="#3D3938"/>
<path d="M25.703 29.9599H35.6641L40.0967 38.4249H30.6572L25.703 29.9599Z" fill="#3D3938"/>
<path d="M28.5681 18.5035H25.3484L23.8893 24.1391H17.3508L18.9087 18.5035H15.6889L12.4214 29.9598H2.46059L10.992 2.5752H20.232L18.7622 7.72866H21.8873L20.4202 13.0358H26.7638L28.1378 7.72866H31.2629L32.552 2.5752H41.7923L35.6635 29.9598H25.703L28.5681 18.5035Z" fill="#D0C5C0"/>
<path d="M44.8718 2.5752H54.1118L48.9448 29.9598H38.9839L44.8718 2.5752Z" fill="#D0C5C0"/>
<path d="M84.9115 2.5752H106.471L106.268 7.72866H93.7671L93.3713 13.0358H106.058L105.842 18.5035H92.9628L92.5423 24.1391H105.619L105.389 29.9598H82.1477L84.9115 2.5752Z" fill="#D0C5C0"/>
<path d="M109.551 2.5752H131.111L131.269 7.72866H118.769L118.698 24.1391H131.775L131.953 29.9598H108.71L109.551 2.5752Z" fill="#D0C5C0"/>
<path d="M147.699 18.5035H144.479L145.233 29.9598H135.273L134.191 2.57506H155.751L156.807 13.0356H153.635L153.885 15.749H157.081L158.515 29.9592H148.554L147.699 18.5035ZM143.77 7.72823L144.12 13.0353H147.292L146.896 7.72823H143.77Z" fill="#D0C5C0"/>
<path d="M183.471 2.5752H205.031L206.274 7.72866H193.774L194.868 13.0358H207.555L208.875 18.5035H195.996L198.359 29.9598H188.397L183.471 2.5752Z" fill="#D0C5C0"/>
<path d="M215.65 7.72866H209.4L208.111 2.5752H229.671L231.276 7.72866H225.025L231.561 29.9598H221.6L215.65 7.72866Z" fill="#D0C5C0"/>
<path d="M70.0446 21.2998H66.8002L67.6041 15.7491H64.4083L62.2259 29.9594H52.2647L57.1917 2.5752H66.4322L65.6402 7.72866H68.7654L67.9969 13.0358H71.1688L72.5917 2.5752H81.8316L78.8275 29.9598H68.8666L70.0446 21.2998Z" fill="#D0C5C0"/>
<path d="M180.391 2.5752H158.831L161.835 29.9598H171.796L170.618 21.2998H173.862L175.117 29.9598H185.078L180.391 2.5752ZM173.129 12.5875H174.712L175.465 17.5808H173.324L173.059 15.7491H169.863L170.112 17.5808H167.971L167.321 12.5875H168.905L168.725 11.2493H165.043L164.605 7.7288H168.772L169.19 10.8056H172.342L171.897 7.7288H176.064L176.615 11.2493H172.933L173.129 12.5875Z" fill="#D0C5C0"/>
</g>
<defs>
<clipPath id="clip0_1_24">
<rect width="233.66" height="39.9981" fill="white" transform="translate(0.169983 0.500961)"/>
</clipPath>
</defs>
</svg>
