<svg width="30" height="31" viewBox="0 0 30 31" fill="none" xmlns="http://www.w3.org/2000/svg">
<g clip-path="url(#clip0_1_400)">
<path d="M4.46163 5.10568C1.86656 7.66665 0.293638 11.0853 0.0371627 14.722C-0.219312 18.3588 0.858239 21.9643 3.06819 24.8641C3.07649 24.877 3.08904 24.8866 3.10368 24.8913C3.11832 24.8959 3.13411 24.8952 3.14832 24.8894C3.16004 24.8808 3.16826 24.8683 3.17147 24.8541C3.17468 24.84 3.17267 24.8251 3.16579 24.8123C2.02116 21.2764 7.86781 12.7046 10.8878 9.11448C10.8999 9.10265 10.9077 9.0872 10.9101 9.0705C10.909 9.06085 10.906 9.05152 10.9011 9.04312C10.8962 9.03472 10.8896 9.02743 10.8818 9.02171C5.79904 3.96538 4.44235 5.12134 4.46163 5.10568ZM25.5391 5.10568C28.1336 7.66681 29.7062 11.0852 29.9628 14.7217C30.2194 18.3581 29.1423 21.9635 26.9331 24.8635C26.9249 24.8765 26.9124 24.8862 26.8977 24.8908C26.883 24.8955 26.8672 24.8947 26.853 24.8888C26.8418 24.8799 26.8339 24.8673 26.8307 24.8533C26.8275 24.8393 26.8292 24.8246 26.8355 24.8117C27.9801 21.2758 22.1365 12.7004 19.1201 9.10604C19.1077 9.09502 19.0997 9.07979 19.0978 9.06327C19.0984 9.05332 19.1012 9.04362 19.1061 9.03495C19.111 9.02627 19.1179 9.01885 19.1261 9.01328C24.2083 3.95755 25.5547 5.12134 25.5391 5.10568ZM15.0001 0.780029C18.0267 0.780029 20.5172 1.6095 22.8137 2.97508C22.8268 2.98131 22.837 2.99252 22.8419 3.00625C22.8468 3.01997 22.8461 3.03509 22.8399 3.04827C22.8336 3.06145 22.8224 3.07161 22.8087 3.07653C22.795 3.08144 22.7798 3.0807 22.7667 3.07447C19.8629 2.4468 15.4483 4.95629 15.032 5.20688C15.0228 5.2141 15.0117 5.2185 15.0001 5.21953C14.9881 5.21884 14.9768 5.21441 14.9675 5.20688C13.8602 4.57137 9.77994 2.43596 7.21055 3.09013C7.19721 3.09636 7.18194 3.09704 7.1681 3.09201C7.15426 3.08699 7.14298 3.07667 7.13675 3.06333C7.13052 3.04999 7.12984 3.03472 7.13487 3.02088C7.1399 3.00704 7.15022 2.99577 7.16356 2.98954C9.45944 1.6095 11.9843 0.780029 15.0001 0.780029ZM15.0001 12.8094C15.0181 12.812 15.0348 12.8205 15.0476 12.8335C19.5364 16.246 27.2169 24.6828 24.8734 27.0688L24.877 27.0658V27.0688H24.8734C22.1404 29.4612 18.6321 30.78 14.9998 30.78C11.3674 30.78 7.85854 29.4612 5.12552 27.0688C2.78324 24.6828 10.4643 16.246 14.9482 12.8335C14.9628 12.8205 14.9808 12.8122 15.0001 12.8094Z" fill="white"/>
</g>
<defs>
<clipPath id="clip0_1_400">
<rect width="30" height="30" fill="white" transform="translate(0 0.780029)"/>
</clipPath>
</defs>
</svg>
