<svg width="28" height="17" viewBox="0 0 28 17" fill="none" xmlns="http://www.w3.org/2000/svg">
<g clip-path="url(#clip0_1_446)">
<path d="M20.4435 12.2337C19.8006 12.2337 19.2777 11.7029 19.2777 11.0508C19.2777 10.3988 19.8006 9.86842 20.4435 9.86842C21.0865 9.86842 21.6094 10.3988 21.6094 11.0508C21.6094 11.7029 21.0865 12.2337 20.4435 12.2337ZM7.55645 12.2337C6.91352 12.2337 6.39058 11.7029 6.39058 11.0508C6.39058 10.3988 6.91352 9.86842 7.55645 9.86842C8.19936 9.86842 8.72233 10.3988 8.72233 11.0508C8.72233 11.7029 8.19936 12.2337 7.55645 12.2337ZM20.8617 5.11055L23.1919 1.01742C23.3255 0.782152 23.246 0.481645 23.0145 0.345783C22.7829 0.210304 22.4862 0.2909 22.3522 0.52578L19.9929 4.67073C18.1886 3.8356 16.1622 3.37044 14 3.37044C11.8378 3.37044 9.81139 3.8356 8.00713 4.67073L5.64776 0.52578C5.5138 0.2909 5.21713 0.210304 4.98554 0.345783C4.75395 0.481645 4.67411 0.782152 4.80807 1.01742L7.13829 5.11055C3.137 7.31773 0.400351 11.4262 0 16.28H28C27.5993 11.4262 24.8626 7.31773 20.8617 5.11055Z" fill="white"/>
</g>
<defs>
<clipPath id="clip0_1_446">
<rect width="28" height="16" fill="white" transform="translate(0 0.280029)"/>
</clipPath>
</defs>
</svg>
