<svg width="29" height="29" viewBox="0 0 29 29" fill="none" xmlns="http://www.w3.org/2000/svg">
<g clip-path="url(#clip0_1_434)">
<path fill-rule="evenodd" clip-rule="evenodd" d="M16.3055 14.256C16.3055 9.73158 16.3055 5.20687 16.3055 0.681883C16.3055 0.293832 16.3106 0.288728 16.7086 0.288728C18.1133 0.288728 19.5147 0.269156 20.9228 0.288728C22.5643 0.310082 24.1482 0.896601 25.4082 1.9496C26.6683 3.00259 27.5274 4.45779 27.8411 6.07034C27.9398 6.59448 27.9899 7.12662 27.9908 7.65999C28.0021 12.114 28.0041 16.5675 27.9967 21.0205C28.0045 21.9686 27.8248 22.9088 27.468 23.7872C27.1112 24.6655 26.5844 25.4646 25.9179 26.1383C25.2513 26.8121 24.4582 27.3473 23.5842 27.7132C22.7101 28.079 21.7724 28.2683 20.825 28.27C19.473 28.2794 18.121 28.27 16.769 28.27C16.3047 28.27 16.3047 28.27 16.3047 27.7943L16.3055 14.256ZM21.8684 12.868C20.2978 12.8314 19.0453 14.1504 19.0249 15.6346C19.0036 17.1749 20.2596 18.4122 21.6669 18.4905C23.3556 18.5849 24.6498 17.2029 24.6498 15.7188C24.6507 14.147 23.4509 12.8961 21.8684 12.868Z" fill="white"/>
<path fill-rule="evenodd" clip-rule="evenodd" d="M13.5114 14.2881V27.8903C13.5114 28.2443 13.4739 28.2809 13.1211 28.28H7.35152C5.38385 28.28 3.66106 27.6341 2.23165 26.2777C1.1829 25.2922 0.467671 24.0038 0.185741 22.592C0.0914749 22.1728 0.0393461 21.7452 0.0301305 21.3155C0.0199265 16.6308 -0.0412992 11.9453 0.0471357 7.26318C0.103258 4.33152 1.6075 2.20405 4.25715 0.927562C5.23163 0.456114 6.2801 0.283364 7.36173 0.285917C9.27583 0.291022 11.1882 0.285917 13.1049 0.285917C13.5012 0.285917 13.5139 0.299531 13.5139 0.71141L13.5114 14.2881ZM11.2299 25.9951V2.55295H10.9246C9.74862 2.55295 8.57176 2.54444 7.39574 2.55806C7.00261 2.56041 6.61037 2.5957 6.22313 2.66358C4.01225 3.0627 2.29202 5.13656 2.29117 7.38232C2.29117 11.9947 2.27672 16.6079 2.29883 21.2202C2.30478 22.5971 2.8728 23.7647 3.88215 24.7042C4.85238 25.6062 6.01649 26.0045 7.32601 26.0096C8.54624 26.0147 9.76648 26.0096 10.9867 26.0096C11.0598 26.0096 11.1449 26.0011 11.2299 25.9951Z" fill="white"/>
<path fill-rule="evenodd" clip-rule="evenodd" d="M4.39172 8.67235C4.35006 7.31057 5.49716 6.04838 7.0031 6.05348C8.47418 6.05859 9.65529 7.16503 9.64594 8.73193C9.63659 10.2988 8.32877 11.355 6.97334 11.3218C5.51331 11.2818 4.38237 10.1439 4.39172 8.67235Z" fill="white"/>
</g>
<defs>
<clipPath id="clip0_1_434">
<rect width="29" height="28" fill="white" transform="translate(0 0.280029)"/>
</clipPath>
</defs>
</svg>
