<svg width="30" height="24" viewBox="0 0 30 24" fill="none" xmlns="http://www.w3.org/2000/svg">
<g clip-path="url(#clip0_1_417)">
<path fill-rule="evenodd" clip-rule="evenodd" d="M29.7332 18.3833C29.1472 19.1177 27.7115 19.6416 27.7115 19.6416L17.031 23.4524V20.642L24.8911 17.8601C25.7831 17.5427 25.92 17.0939 25.195 16.8583C24.4713 16.6221 23.161 16.6898 22.2683 17.0086L17.031 18.8409V15.9243L17.3329 15.8227C17.3329 15.8227 18.8463 15.2907 20.9743 15.0565C23.1024 14.8237 25.7081 15.0883 27.7537 15.8586C30.0589 16.5822 30.3185 17.6489 29.7332 18.3833ZM18.0477 13.5979V6.4109C18.0477 5.56685 17.8909 4.7898 17.0937 4.56982C16.4831 4.37556 16.1043 4.93871 16.1043 5.78209V23.78L11.2179 22.2394V0.780029C13.2955 1.16314 16.3223 2.06879 17.9495 2.61367C22.0877 4.02494 23.4908 5.78141 23.4908 9.73906C23.4908 13.5965 21.0936 15.0585 18.0477 13.5979ZM2.25182 20.3483C-0.114728 19.6863 -0.508585 18.3068 0.570092 17.5122C1.567 16.7785 3.26235 16.2261 3.26235 16.2261L10.2686 13.7515V16.5727L5.22687 18.3651C4.33626 18.6825 4.1993 19.1319 4.92296 19.3675C5.6473 19.603 6.95834 19.536 7.85031 19.2179L10.2686 18.3461V20.8701C10.1153 20.8972 9.94429 20.9243 9.7862 20.9507C7.36719 21.3433 4.79076 21.1795 2.25182 20.3483Z" fill="white"/>
</g>
<defs>
<clipPath id="clip0_1_417">
<rect width="30" height="23" fill="white" transform="translate(0 0.780029)"/>
</clipPath>
</defs>
</svg>
