<svg width="191" height="127" viewBox="0 0 191 127" fill="none" xmlns="http://www.w3.org/2000/svg">
<g clip-path="url(#clip0_1_241)">
<path d="M190.842 0.359863H189.757H1.68699H0.588867V1.33891V90.2472V91.213H1.68699H190.961V0.359863H190.842Z" fill="white"/>
<path d="M189.784 1.33887V90.2472H1.68698V1.33887H189.784Z" fill="#231F20"/>
<path d="M56.8975 4.48779H4.42569V19.2397H56.8975V4.48779Z" fill="white"/>
<path d="M56.8975 22.4546H4.39923V76.6595H56.8975V22.4546Z" fill="white"/>
<path d="M4.41245 87.0455V79.8481H14.9571V81.5284H8.64617V82.5604H13.9913V84.2406H8.64617V85.3652H15.1952V87.0455H4.41245Z" fill="white"/>
<path d="M24.1522 81.9387C24.0994 81.813 24.0162 81.7023 23.9099 81.6169C23.8036 81.5314 23.6777 81.4738 23.5436 81.4492C23.1846 81.3589 22.8156 81.3144 22.4455 81.3169C21.5194 81.3169 21.1224 81.4757 21.1224 81.7403C21.1224 82.8119 28.5579 82.1372 28.5579 84.7568C28.5579 86.4238 26.0574 87.2441 22.5116 87.2441C18.9659 87.2441 16.8755 86.1328 16.7829 84.8229H20.8446C20.9099 84.9653 21.0071 85.0907 21.1287 85.1893C21.2503 85.288 21.3931 85.3573 21.5458 85.3918C21.9347 85.5173 22.3412 85.5798 22.7498 85.5771C23.8082 85.5771 24.5094 85.3919 24.5094 85.0479C24.5094 83.963 17.0739 84.7039 17.0739 81.9652C17.0739 80.4305 19.4422 79.6631 22.6836 79.6631C26.2691 79.6631 27.8964 80.6818 28.2139 81.9387H24.1522Z" fill="white"/>
<path d="M34.8688 82.9705H36.5359C37.8589 82.9705 38.5469 82.7721 38.5469 82.2825C38.5469 81.793 37.8324 81.5284 36.8534 81.5284H34.8688V82.9705ZM34.8688 84.5317V87.0455H30.6351V79.8481H36.7475C41.0474 79.8481 42.4631 80.5097 42.4631 81.8989C42.4631 82.7324 41.8016 83.4336 40.2933 83.6717C41.6163 83.9496 42.4895 84.1083 42.4895 85.5637C42.4895 86.503 42.4895 86.8206 42.9394 86.8206V87.0455H38.6395C38.4621 86.6283 38.3894 86.1741 38.4278 85.7224C38.4278 84.7698 38.1367 84.4656 36.1654 84.4656L34.8688 84.5317Z" fill="white"/>
<path d="M49.3032 81.5284V82.7324H51.0628C51.9096 82.7324 52.5182 82.5207 52.5182 82.1105C52.5182 81.7004 51.6847 81.5284 50.7982 81.5284H49.3032ZM49.3032 84.0422V85.3652H51.1554C52.2006 85.3652 52.9812 85.2461 52.9812 84.7037C52.9812 84.1613 52.0022 84.0422 50.6527 84.0422H49.3032ZM45.0695 87.0455V79.8481H51.2481C54.1587 79.8481 56.5402 80.2318 56.5402 81.6607C56.5402 82.4016 55.667 82.9837 54.8467 83.2219C56.2491 83.4336 57.0033 84.0951 57.0033 84.8757C57.0033 86.4766 54.7938 87.0455 51.4333 87.0455H45.0695Z" fill="white"/>
<path d="M186.622 4.47461H60.086V87.0588H186.622V4.47461Z" fill="white"/>
<path d="M33.9956 63.3102H31.7332V64.5538H33.9956V66.7501H35.3187V64.5538H37.5811V63.3102H35.279V61.1139H33.9559L33.9956 63.3102ZM30.3837 62.7545C30.3837 58.3885 28.0419 55.7953 24.1522 55.7953C18.8601 55.7953 17.6164 59.3808 17.6164 62.7545C17.6164 66.8692 19.6803 69.7137 23.9934 69.7137C28.3066 69.7137 30.3837 66.8692 30.3837 62.7545ZM8.39481 34.9574L40.1478 25.458L43.3363 35.5396L27.4598 40.2893L28.7829 44.4039L43.4686 40.0511L46.6439 50.1195L31.9317 54.4723L33.2547 58.8118L49.7133 53.9034L52.9019 63.9585L20.58 73.6167L8.39481 34.9574ZM9.59877 60.426C11.0335 60.0952 12.3818 59.4639 13.5547 58.5737V69.158H16.5447V55.9276H13.634C12.4744 56.8837 11.1197 57.5746 9.66492 57.9519V60.426" fill="#231F20"/>
<path d="M20.3551 62.6353C20.4345 58.2163 22.128 57.2505 24.139 57.2505C26.3749 57.2505 27.645 58.944 27.6318 62.8073C27.6318 65.2284 26.9703 68.1788 24.0993 68.1656C21.2283 68.1523 20.3419 65.9032 20.3551 62.6882" fill="#231F20"/>
<path d="M5.88101 16.0113V7.70264H9.10923V9.02568H7.08498V11.0367H8.95046V12.2671H7.08498V14.6883H9.17538V16.0113H5.88101Z" fill="#231F20"/>
<path d="M9.50616 7.70264H10.8292L11.7553 13.7489L12.8138 7.70264H14.0574L12.4962 16.0113H10.988L9.50616 7.70264Z" fill="#231F20"/>
<path d="M14.6131 16.0113V7.70264H17.8942V9.02568H15.87V11.0367H17.7884V12.2671H15.87V14.6883H17.9604V16.0113H14.6131Z" fill="#231F20"/>
<path d="M20.0111 16.0114H18.7542V7.70268H21.0695C21.2744 7.70096 21.4764 7.75099 21.6568 7.84813C21.8372 7.94526 21.9902 8.08636 22.1015 8.25836C22.3865 8.75132 22.52 9.31733 22.4852 9.88569C22.4934 10.3393 22.4078 10.7897 22.2338 11.2087C22.1555 11.3835 22.0367 11.5372 21.8871 11.6568C21.7375 11.7765 21.5616 11.8587 21.3738 11.8967L21.6517 11.9629C21.784 12.0082 21.9056 12.0802 22.0089 12.1746C22.1482 12.3082 22.2566 12.4708 22.3264 12.6508C22.4224 12.9362 22.4672 13.2363 22.4587 13.5373V14.0797C22.4587 14.3179 22.4587 14.5693 22.4587 14.8206C22.4587 15.072 22.4587 15.3102 22.4587 15.5218C22.4587 15.7335 22.4587 15.8791 22.5249 15.9717H21.3077C21.2178 15.7168 21.1731 15.4481 21.1754 15.1779C21.1754 14.9 21.1754 14.6222 21.1754 14.3576V13.6564C21.1788 13.4594 21.152 13.2631 21.096 13.0742C21.0495 12.9017 20.9422 12.7518 20.7939 12.6521C20.6456 12.5524 20.4663 12.5097 20.2889 12.5318H19.9582L20.0111 16.0114ZM20.0111 11.3013H20.5668C20.6229 11.3026 20.6786 11.2928 20.7309 11.2724C20.7831 11.2519 20.8308 11.2213 20.8711 11.1823C20.9559 11.1205 21.0241 11.0387 21.0695 10.9441C21.1253 10.8181 21.161 10.6842 21.1754 10.5472C21.1872 10.4108 21.1872 10.2735 21.1754 10.1371C21.1974 9.84435 21.1379 9.55125 21.0034 9.29033C20.9527 9.21058 20.8822 9.14544 20.7986 9.10135C20.7151 9.05726 20.6215 9.03575 20.5271 9.03895H19.9714L20.0111 11.3013Z" fill="#231F20"/>
<path d="M24.4036 13.1403L22.8159 7.70264H24.139L25.0254 11.2087L25.9912 7.70264H27.3143L25.6473 13.1403V16.0113H24.4036V13.1403Z" fill="#231F20"/>
<path d="M29.9207 16.1438C29.4936 16.1724 29.0707 16.0455 28.7299 15.7866C28.4376 15.5281 28.2224 15.1939 28.1081 14.8208C27.9773 14.3911 27.9017 13.9465 27.8832 13.4977C27.8832 12.9818 27.8832 12.4525 27.8832 11.9101C27.8832 11.3676 27.8832 10.8252 27.8832 10.3092C27.9017 9.86044 27.9773 9.41585 28.1081 8.98617C28.2224 8.61307 28.4376 8.27883 28.7299 8.02035C29.0707 7.76146 29.4936 7.63458 29.9207 7.66313C30.3515 7.63724 30.7777 7.76369 31.1246 8.02035C31.4132 8.27959 31.6239 8.614 31.7332 8.98617C31.864 9.41585 31.9396 9.86044 31.9581 10.3092C31.9581 10.8252 31.9581 11.3676 31.9581 11.9101C31.9581 12.4525 31.9581 12.9818 31.9581 13.4977C31.9396 13.9465 31.864 14.3911 31.7332 14.8208C31.6239 15.1929 31.4132 15.5274 31.1246 15.7866C30.7777 16.0433 30.3515 16.1697 29.9207 16.1438ZM29.9207 14.9002C29.9997 14.9059 30.079 14.8934 30.1524 14.8636C30.2258 14.8338 30.2914 14.7874 30.344 14.7282C30.4681 14.5689 30.5541 14.3833 30.5954 14.1857C30.6512 13.8708 30.6865 13.5526 30.7013 13.2331C30.7013 12.8494 30.7013 12.3864 30.7013 11.9101C30.7013 11.4338 30.7013 10.931 30.7013 10.587C30.6874 10.2719 30.6521 9.95803 30.5954 9.64769C30.5518 9.44679 30.4661 9.25741 30.344 9.09201C30.2892 9.03564 30.2232 8.99124 30.1504 8.96164C30.0775 8.93204 29.9993 8.91786 29.9207 8.92002C29.8421 8.91865 29.7642 8.93318 29.6914 8.96274C29.6186 8.9923 29.5526 9.03627 29.4973 9.09201C29.3761 9.25638 29.2946 9.44657 29.2591 9.64769C29.1959 9.95703 29.1605 10.2714 29.1533 10.587C29.1533 10.984 29.1533 11.4338 29.1533 11.9101C29.1533 12.3864 29.1533 12.9024 29.1533 13.2331C29.1614 13.5531 29.1968 13.8718 29.2591 14.1857C29.2926 14.3834 29.3744 14.5697 29.4973 14.7282C29.5499 14.7883 29.6151 14.8361 29.6883 14.8681C29.7615 14.9001 29.8408 14.9156 29.9207 14.9134V14.9002Z" fill="#231F20"/>
<path d="M33.0034 16.0113V7.70264H34.6968L36.311 13.4579V7.70264H37.4885V16.0113H35.8347L34.1941 9.93857V16.0113H33.0034Z" fill="#231F20"/>
<path d="M38.5469 16.0113V7.70264H41.828V9.02568H39.8038V11.0367H41.6692V12.2671H39.8038V14.6883H41.8942V16.0113H38.5469Z" fill="#231F20"/>
<path d="M44.4344 9.02554C44.6497 8.85434 44.853 8.66868 45.043 8.46986C45.2475 8.24905 45.4252 8.00479 45.5722 7.74219H46.6704V16.0112H45.4267V9.6209C45.278 9.79773 45.1189 9.96561 44.9504 10.1237L44.4344 10.547V9.02554Z" fill="#231F20"/>
<path d="M49.5413 7.6367C49.8467 7.62171 50.1499 7.69521 50.4145 7.84838C50.6631 8.02057 50.8452 8.27271 50.9305 8.56283C51.0685 8.99127 51.1486 9.43622 51.1687 9.88587C51.1687 10.4151 51.1687 11.0766 51.1687 11.8704C51.1687 12.6642 51.1687 13.1009 51.1687 13.6301C51.1515 14.077 51.0849 14.5208 50.9702 14.9531C50.8787 15.281 50.7005 15.5781 50.4542 15.8131C50.188 16.0097 49.8657 16.1158 49.5347 16.1158C49.2037 16.1158 48.8815 16.0097 48.6152 15.8131C48.369 15.5781 48.1907 15.281 48.0992 14.9531C47.986 14.52 47.9151 14.0769 47.8875 13.6301C47.8875 13.1009 47.8875 12.5187 47.8875 11.8704C47.8875 11.2221 47.8875 10.4151 47.8875 9.88587C47.9077 9.43622 47.9877 8.99127 48.1257 8.56283C48.211 8.27271 48.3931 8.02057 48.6417 7.84838C48.912 7.68541 49.2267 7.61137 49.5413 7.6367ZM49.5413 8.85389C49.4881 8.85034 49.4348 8.85792 49.3847 8.87614C49.3345 8.89437 49.2888 8.92284 49.2503 8.95974C49.1751 9.09973 49.1258 9.25211 49.1047 9.40957C49.0858 9.71358 49.0858 10.0185 49.1047 10.3225C49.1047 10.7194 49.1047 11.2354 49.1047 11.8704C49.1047 12.5055 49.1047 13.0082 49.1047 13.4052C49.1047 13.8021 49.1047 14.1064 49.1709 14.3313C49.1893 14.4912 49.2436 14.645 49.3297 14.7811C49.3605 14.8222 49.4004 14.8555 49.4463 14.8785C49.4923 14.9015 49.5429 14.9134 49.5943 14.9134C49.6475 14.9135 49.7001 14.9016 49.7482 14.8787C49.7962 14.8558 49.8386 14.8225 49.8721 14.7811C49.9581 14.645 50.0124 14.4912 50.0309 14.3313C50.0505 14.0229 50.0505 13.7136 50.0309 13.4052C50.0309 13.0082 50.0309 12.5055 50.0309 11.8704C50.0309 11.2354 50.0309 10.7194 50.0309 10.3225C50.0498 10.0185 50.0498 9.71358 50.0309 9.40957C50.0124 9.2496 49.9581 9.09585 49.8721 8.95974C49.8305 8.91542 49.7783 8.88244 49.7205 8.86392C49.6626 8.8454 49.6009 8.84195 49.5413 8.85389Z" fill="#231F20"/>
<path d="M53.0474 9.31689H53.9735V11.5793H55.3759V12.9023H53.9735V15.1647H53.0474V12.8626H51.6317V11.5396H53.0474V9.31689Z" fill="#231F20"/>
<path d="M82.5247 49.1141V39.6411H87.8169V40.7525H83.5567V43.6896H87.195V44.801H83.5567V49.1141H82.5247Z" fill="black"/>
<path d="M92.6063 48.267C92.3245 48.5735 91.988 48.8248 91.614 49.0079C91.2902 49.1916 90.9275 49.2959 90.5556 49.3122C90.298 49.325 90.0406 49.2846 89.7993 49.1935C89.558 49.1025 89.3381 48.9627 89.1532 48.783C88.975 48.5921 88.8375 48.367 88.7488 48.1214C88.6601 47.8758 88.6221 47.6148 88.6372 47.3541C88.6296 46.9914 88.7113 46.6325 88.8753 46.3089C89.0318 46.0144 89.2649 45.7675 89.5501 45.5945C89.9607 45.3787 90.4107 45.2482 90.8731 45.2108C91.4559 45.14 92.0286 45.0024 92.5798 44.8006V44.5096C92.6178 44.1594 92.5285 43.8072 92.3284 43.5173C92.1892 43.3692 92.0177 43.2551 91.8273 43.184C91.6369 43.1128 91.4326 43.0866 91.2303 43.1072C90.8796 43.085 90.5312 43.1779 90.2381 43.3718C89.9685 43.6582 89.8011 44.0256 89.7618 44.417L88.8224 44.2582C88.894 43.6422 89.1796 43.0709 89.6295 42.6441C90.1365 42.2807 90.7532 42.1031 91.3759 42.1413C91.8386 42.1303 92.2958 42.2446 92.6989 42.4721C92.8559 42.5605 92.9933 42.68 93.1025 42.8233C93.2117 42.9666 93.2904 43.1308 93.334 43.3056C93.4385 43.7744 93.4829 44.2545 93.4663 44.7345V46.2824C93.4303 46.9655 93.4303 47.6501 93.4663 48.3332C93.5068 48.6206 93.587 48.9011 93.7044 49.1667H92.8047C92.7006 48.8764 92.6339 48.5741 92.6063 48.267ZM92.6063 45.6209C92.1064 45.8344 91.582 45.9855 91.0451 46.0708C90.7542 46.1083 90.4695 46.1839 90.1984 46.2957C90.0434 46.3889 89.9156 46.5212 89.8279 46.6794C89.7408 46.8516 89.6955 47.042 89.6956 47.235C89.6897 47.3791 89.7138 47.5228 89.7661 47.6572C89.8185 47.7915 89.8981 47.9135 89.9999 48.0156C90.2328 48.2204 90.5371 48.325 90.8467 48.3067C91.1749 48.3131 91.4975 48.221 91.7728 48.0421C92.0424 47.8721 92.258 47.6289 92.3946 47.3409C92.5573 46.9196 92.6294 46.4688 92.6063 46.0178V45.6209Z" fill="black"/>
<path d="M94.9878 49.1138V42.2473H95.8477V43.2131C96.0227 42.8711 96.2823 42.5795 96.6019 42.3663C96.9117 42.1758 97.2702 42.0793 97.6338 42.0885C97.9217 42.0899 98.206 42.153 98.4674 42.2737C98.7058 42.3747 98.915 42.534 99.076 42.7368C99.2494 42.9536 99.3716 43.2069 99.4332 43.4777C99.5275 43.9434 99.5675 44.4184 99.5523 44.8933V49.1138H98.5997V44.933C98.6188 44.5578 98.574 44.182 98.4674 43.8217C98.395 43.6038 98.2562 43.4141 98.0704 43.2792C97.8814 43.1567 97.6606 43.0923 97.4354 43.094C97.2245 43.0862 97.0147 43.1289 96.8237 43.2187C96.6327 43.3085 96.4659 43.4426 96.3373 43.61C96.0211 44.13 95.8776 44.7366 95.9271 45.3432V49.1006L94.9878 49.1138Z" fill="black"/>
<path d="M103.138 48.0686L103.27 49.1006C103.037 49.1607 102.797 49.1918 102.556 49.1932C102.275 49.2027 101.997 49.1388 101.749 49.008C101.555 48.8779 101.411 48.687 101.338 48.4655C101.24 48.0318 101.2 47.5868 101.219 47.1425V43.1734H100.531V42.2737H101.219V40.5537L102.172 39.8525V42.2472H103.138V43.1469H102.172V47.116C102.154 47.357 102.181 47.5992 102.251 47.8305C102.299 47.9084 102.368 47.971 102.45 48.0109C102.532 48.0508 102.624 48.0662 102.714 48.0554L103.138 48.0686Z" fill="black"/>
<path d="M107.755 48.267C107.466 48.5711 107.126 48.8219 106.75 49.0079C106.417 49.1752 106.05 49.2613 105.678 49.2593C105.42 49.2721 105.163 49.2317 104.922 49.1406C104.68 49.0496 104.46 48.9098 104.276 48.7301C104.097 48.5392 103.96 48.3141 103.871 48.0685C103.782 47.8229 103.744 47.5619 103.76 47.3012C103.752 46.9385 103.834 46.5796 103.998 46.256C104.158 45.964 104.39 45.718 104.672 45.5416C105.084 45.3278 105.533 45.1974 105.995 45.1579C106.578 45.0871 107.151 44.9495 107.702 44.7477V44.4567C107.74 44.1065 107.651 43.7543 107.451 43.4644C107.313 43.3181 107.144 43.2052 106.956 43.1341C106.768 43.063 106.566 43.0357 106.366 43.0542C106.011 43.0301 105.658 43.1231 105.36 43.3189C105.096 43.609 104.93 43.9745 104.884 44.3641L103.945 44.2053C104.016 43.5893 104.302 43.018 104.752 42.5912C105.241 42.2421 105.832 42.0653 106.432 42.0884C106.917 42.065 107.399 42.1797 107.821 42.4192C107.978 42.5076 108.116 42.6271 108.225 42.7704C108.334 42.9137 108.413 43.0778 108.456 43.2527C108.561 43.7215 108.605 44.2016 108.589 44.6816V46.2295C108.553 46.9126 108.553 47.5972 108.589 48.2803C108.629 48.5677 108.709 48.8482 108.827 49.1138H107.887C107.804 48.8391 107.759 48.5541 107.755 48.267ZM107.676 45.6209C107.176 45.8345 106.651 45.9855 106.115 46.0708C105.824 46.1102 105.54 46.1857 105.268 46.2957C105.113 46.3889 104.985 46.5212 104.897 46.6794C104.81 46.8517 104.765 47.042 104.765 47.2351C104.759 47.3791 104.783 47.5228 104.836 47.6572C104.888 47.7915 104.968 47.9136 105.069 48.0156C105.302 48.2204 105.607 48.325 105.916 48.3067C106.245 48.3148 106.568 48.2225 106.842 48.0421C107.115 47.8763 107.332 47.6319 107.464 47.3409C107.627 46.9196 107.699 46.4688 107.676 46.0179V45.6209Z" fill="black"/>
<path d="M109.7 47.0499L110.653 46.8779C110.667 47.278 110.827 47.6592 111.102 47.9496C111.234 48.074 111.391 48.1699 111.561 48.2313C111.732 48.2928 111.914 48.3185 112.095 48.3068C112.44 48.3197 112.779 48.2069 113.047 47.9893C113.156 47.8911 113.242 47.7703 113.299 47.6355C113.356 47.5007 113.383 47.355 113.378 47.2087C113.383 47.0873 113.36 46.9665 113.309 46.8561C113.258 46.7457 113.182 46.6489 113.087 46.5736C112.785 46.4 112.46 46.2708 112.121 46.1899C111.606 46.0541 111.109 45.8587 110.639 45.6078C110.39 45.4538 110.189 45.234 110.057 44.9727C109.913 44.6904 109.84 44.3769 109.846 44.0598C109.842 43.807 109.889 43.5559 109.984 43.3218C110.08 43.0876 110.222 42.8751 110.401 42.6971C110.608 42.5046 110.852 42.3561 111.118 42.2606C111.384 42.1651 111.667 42.1246 111.949 42.1414C112.327 42.1337 112.703 42.2105 113.047 42.3663C113.341 42.4988 113.593 42.7093 113.775 42.9749C113.973 43.3102 114.095 43.6852 114.132 44.0731L113.193 44.2318C113.195 44.0754 113.165 43.9202 113.103 43.7764C113.042 43.6326 112.951 43.5034 112.836 43.3972C112.721 43.2911 112.585 43.2104 112.437 43.1604C112.288 43.1104 112.131 43.0923 111.976 43.1072C111.649 43.085 111.325 43.1685 111.049 43.3454C110.955 43.422 110.878 43.5187 110.826 43.6286C110.773 43.7384 110.746 43.8586 110.745 43.9804C110.743 44.0956 110.768 44.2097 110.819 44.3132C110.87 44.4167 110.944 44.5067 111.036 44.5758C111.368 44.7554 111.718 44.8974 112.081 44.9992C112.608 45.1454 113.117 45.3449 113.603 45.5945C113.843 45.7353 114.033 45.9482 114.145 46.2031C114.285 46.4868 114.353 46.8001 114.344 47.116C114.356 47.4093 114.307 47.7019 114.2 47.9752C114.093 48.2486 113.93 48.4966 113.722 48.7037C113.492 48.9134 113.223 49.0753 112.93 49.1798C112.637 49.2843 112.326 49.3293 112.015 49.3123C111.712 49.3269 111.409 49.2789 111.125 49.171C110.841 49.0632 110.582 48.898 110.365 48.6857C110.147 48.4734 109.976 48.2185 109.862 47.9371C109.747 47.6556 109.692 47.3536 109.7 47.0499Z" fill="black"/>
<path d="M115.455 51.7466L115.363 50.6352C115.537 50.6974 115.72 50.7331 115.905 50.7411C116.081 50.7431 116.255 50.6974 116.408 50.6088C116.546 50.5174 116.656 50.3891 116.725 50.2383C116.725 50.2383 116.884 49.7885 117.109 49.0873L114.966 42.2207H115.984L117.162 46.1898C117.307 46.6926 117.453 47.2218 117.572 47.7775C117.678 47.2483 117.81 46.7323 117.956 46.2163L119.16 42.2472H120.112L117.982 49.2196C117.81 49.8404 117.589 50.4465 117.321 51.0321C117.197 51.2977 117.005 51.5258 116.765 51.6937C116.56 51.8266 116.321 51.8956 116.077 51.8921C115.863 51.8822 115.652 51.8329 115.455 51.7466Z" fill="black"/>
<path d="M126.278 49.1141L123.261 39.6411H124.372L126.397 46.5209C126.556 47.0501 126.688 47.5661 126.807 48.0689C126.926 47.5529 127.058 47.0369 127.217 46.5209L129.321 39.6411H130.366L127.323 49.1141H126.278Z" fill="black"/>
<path d="M130.988 40.9773V39.6543H131.94V40.9773H130.988ZM130.988 49.114V42.2475H131.94V49.114H130.988Z" fill="black"/>
<path d="M133.038 45.6738C132.972 44.7326 133.233 43.7974 133.779 43.0277C134.005 42.7439 134.291 42.5147 134.618 42.3571C134.944 42.1995 135.302 42.1177 135.665 42.1177C136.027 42.1177 136.385 42.1995 136.711 42.3571C137.038 42.5147 137.324 42.7439 137.55 43.0277C138.109 43.7916 138.376 44.7301 138.304 45.6738C138.375 46.6485 138.114 47.6184 137.563 48.4257C137.34 48.7131 137.053 48.9441 136.724 49.1003C136.396 49.2566 136.035 49.3337 135.671 49.3254C135.308 49.3296 134.949 49.2507 134.621 49.0948C134.293 48.9388 134.005 48.71 133.779 48.4257C133.212 47.626 132.95 46.6501 133.038 45.6738ZM134.004 45.6738C133.952 46.3706 134.123 47.0658 134.494 47.6584C134.625 47.8576 134.804 48.0211 135.014 48.1343C135.224 48.2474 135.459 48.3067 135.698 48.3067C135.931 48.3076 136.16 48.2469 136.362 48.1307C136.564 48.0145 136.732 47.847 136.849 47.6451C137.208 47.0534 137.375 46.3644 137.325 45.6738C137.377 44.983 137.21 44.2935 136.849 43.7025C136.717 43.5041 136.538 43.3412 136.328 43.2281C136.118 43.1151 135.883 43.0553 135.645 43.0542C135.412 43.0572 135.184 43.118 134.981 43.2312C134.777 43.3444 134.606 43.5063 134.48 43.7025C134.123 44.2949 133.956 44.9833 134.004 45.6738Z" fill="black"/>
<path d="M139.402 49.1141V39.6411H140.342V49.1141H139.402Z" fill="black"/>
<path d="M145.687 46.9042L146.666 47.0498C146.551 47.6803 146.241 48.2589 145.779 48.7036C145.261 49.1155 144.603 49.3098 143.943 49.2456C143.284 49.1815 142.676 48.8638 142.247 48.3596C141.702 47.5894 141.44 46.6546 141.506 45.7135C141.455 44.772 141.72 43.8404 142.26 43.0674C142.476 42.773 142.759 42.5343 143.086 42.371C143.413 42.2076 143.773 42.1244 144.139 42.128C144.495 42.1259 144.846 42.2088 145.164 42.3699C145.481 42.531 145.756 42.7656 145.964 43.0542C146.501 43.8279 146.757 44.7612 146.692 45.7003V46.0178H142.485C142.48 46.6422 142.669 47.2526 143.027 47.7642C143.163 47.9449 143.339 48.0916 143.541 48.1927C143.743 48.2937 143.966 48.3463 144.192 48.3463C144.906 48.3066 145.396 47.8436 145.687 46.9042ZM142.551 45.0255H145.687C145.678 44.5583 145.545 44.1019 145.303 43.7025C145.182 43.5035 145.011 43.34 144.806 43.2285C144.602 43.117 144.371 43.0614 144.139 43.0674C143.927 43.0663 143.719 43.1134 143.528 43.2051C143.338 43.2968 143.171 43.4307 143.041 43.5966C142.727 44.0072 142.555 44.5087 142.551 45.0255Z" fill="black"/>
<path d="M147.87 49.1139V42.2473H148.769V43.2131C148.953 42.8769 149.211 42.5872 149.523 42.3664C149.804 42.2012 150.12 42.1065 150.445 42.0904C150.77 42.0742 151.094 42.1372 151.389 42.2738C151.631 42.3748 151.845 42.5339 152.011 42.7368C152.184 42.9537 152.306 43.207 152.368 43.4777C152.45 43.945 152.485 44.4192 152.474 44.8934V49.1139H151.535V44.9331C151.547 44.5581 151.502 44.1833 151.402 43.8217C151.32 43.6056 151.178 43.4175 150.992 43.2793C150.803 43.1567 150.582 43.0923 150.357 43.0941C150.148 43.0884 149.941 43.1321 149.753 43.2218C149.564 43.3115 149.399 43.4445 149.272 43.61C148.917 44.1162 148.74 44.7258 148.769 45.3432V49.1007L147.87 49.1139Z" fill="black"/>
<path d="M157.594 46.6662L158.52 46.8118C158.47 47.5108 158.185 48.1726 157.713 48.6905C157.509 48.8957 157.265 49.0577 156.997 49.1669C156.729 49.276 156.441 49.3299 156.152 49.3255C155.8 49.3297 155.452 49.2504 155.137 49.0939C154.822 48.9375 154.549 48.7086 154.339 48.4259C153.819 47.6454 153.568 46.7162 153.625 45.7798C153.564 44.8431 153.815 43.9126 154.339 43.1337C154.556 42.8487 154.836 42.6187 155.158 42.4624C155.48 42.3061 155.834 42.2279 156.192 42.2341C156.732 42.2206 157.258 42.4147 157.66 42.7765C158.098 43.2127 158.37 43.7884 158.428 44.4038L157.501 44.5758C157.445 44.1956 157.285 43.8384 157.038 43.5439C156.934 43.4318 156.806 43.3432 156.665 43.2839C156.524 43.2246 156.371 43.196 156.218 43.1999C155.988 43.1988 155.761 43.2551 155.557 43.3637C155.354 43.4722 155.181 43.6296 155.054 43.8217C154.7 44.4152 154.538 45.1039 154.591 45.793C154.539 46.5015 154.696 47.2096 155.041 47.8305C155.161 48.0231 155.329 48.1815 155.528 48.2904C155.727 48.3993 155.951 48.4551 156.178 48.4523C156.353 48.4536 156.526 48.4177 156.686 48.347C156.845 48.2763 156.988 48.1724 157.104 48.0422C157.406 47.6453 157.577 47.1645 157.594 46.6662Z" fill="black"/>
<path d="M163.177 46.9043L164.156 47.0498C164.047 47.6822 163.736 48.2623 163.27 48.7036C162.828 49.0791 162.262 49.2771 161.682 49.2593C161.311 49.2686 160.942 49.1924 160.605 49.0363C160.268 48.8803 159.971 48.6488 159.737 48.3596C159.192 47.5895 158.931 46.6546 158.996 45.7136C158.945 44.7721 159.211 43.8405 159.751 43.0675C159.969 42.7721 160.254 42.5328 160.583 42.3695C160.912 42.2061 161.275 42.1234 161.643 42.1281C161.997 42.1248 162.347 42.2073 162.663 42.3685C162.978 42.5298 163.25 42.7651 163.455 43.0542C163.996 43.8262 164.257 44.7597 164.196 45.7003V46.0179H160.002C159.993 46.6408 160.178 47.2511 160.531 47.7643C160.668 47.9435 160.844 48.0891 161.046 48.19C161.248 48.2909 161.47 48.3444 161.695 48.3464C162.397 48.3067 162.899 47.8437 163.177 46.9043ZM160.042 45.0256H163.177C163.172 44.5596 163.045 44.1032 162.807 43.7025C162.678 43.5078 162.503 43.3479 162.298 43.2371C162.092 43.1263 161.863 43.0681 161.629 43.0675C161.419 43.0633 161.212 43.1091 161.023 43.2012C160.834 43.2932 160.67 43.4288 160.544 43.5967C160.22 44.0026 160.043 44.5062 160.042 45.0256Z" fill="black"/>
<path d="M190.961 89.9561H0.588867V126.75H190.961V89.9561Z" fill="white"/>
<path d="M189.731 89.8901H1.68698V125.453H189.731V89.8901Z" fill="#231F20"/>
<path d="M188.434 91.1602H2.9968V124.13H188.434V91.1602Z" fill="white"/>
<path d="M13.2901 95.0894H12.2845V102.67H13.2901V95.0894Z" fill="#231F20"/>
<path d="M14.9306 102.67V97.1798H15.7641V97.9603C15.9512 97.6708 16.2109 97.4353 16.5173 97.2775C16.8237 97.1196 17.1662 97.0449 17.5106 97.0607C17.8234 97.055 18.1341 97.1135 18.4235 97.2327C18.6741 97.325 18.8908 97.4911 19.0453 97.709C19.197 97.9111 19.297 98.1473 19.3364 98.3969C19.3657 98.6961 19.3657 98.9974 19.3364 99.2966V102.67H18.4102V99.3363C18.4199 99.0459 18.3842 98.7557 18.3044 98.4763C18.2225 98.2926 18.0892 98.1364 17.9207 98.0265C17.7217 97.919 17.4985 97.8644 17.2724 97.8677C16.8943 97.8587 16.5264 97.9907 16.2404 98.2382C16.0717 98.4325 15.9457 98.6602 15.8705 98.9063C15.7953 99.1524 15.7726 99.4116 15.8038 99.6671V102.67H14.9306Z" fill="#231F20"/>
<path d="M23.3187 99.4556H20.4609V100.395H23.3187V99.4556Z" fill="#231F20"/>
<path d="M28.0023 99.6936V98.8072H31.2172V101.612C30.7598 101.986 30.2463 102.285 29.6957 102.498C29.1804 102.696 28.6336 102.799 28.0816 102.803C27.3739 102.811 26.6747 102.648 26.0442 102.326C25.4827 102.025 25.0225 101.565 24.7211 101.003C24.4086 100.375 24.2499 99.6811 24.258 98.9792C24.2571 98.2653 24.4153 97.5603 24.7211 96.9152C24.9953 96.3112 25.4601 95.8139 26.0442 95.4996C26.6599 95.178 27.3475 95.0186 28.0419 95.0365C28.5486 95.0249 29.0524 95.1149 29.5237 95.3011C29.9333 95.448 30.2948 95.7042 30.5689 96.042C30.8412 96.4087 31.0348 96.8276 31.1379 97.2725L30.2382 97.5238C30.1506 97.1974 30.0074 96.8886 29.8148 96.6109C29.6202 96.3766 29.3701 96.1947 29.0871 96.0817C28.7558 95.9455 28.4002 95.878 28.0419 95.8833C27.6354 95.8797 27.2317 95.9515 26.8512 96.0949C26.5473 96.2236 26.2727 96.4126 26.0442 96.6506C25.8492 96.8724 25.6887 97.1221 25.5679 97.3915C25.375 97.8802 25.2762 98.4009 25.2768 98.9263C25.2579 99.5113 25.3805 100.092 25.634 100.62C25.8476 101.058 26.2015 101.412 26.6395 101.625C27.079 101.845 27.5639 101.958 28.0552 101.956C28.8608 101.942 29.6403 101.668 30.2779 101.175V99.6936H28.0023Z" fill="#231F20"/>
<path d="M36.1522 101.996C35.8556 102.253 35.5208 102.463 35.1599 102.618C34.8334 102.736 34.4883 102.794 34.1412 102.79C33.6395 102.825 33.143 102.669 32.752 102.353C32.5927 102.213 32.4663 102.04 32.3817 101.845C32.2971 101.651 32.2564 101.44 32.2624 101.228C32.2545 100.969 32.3186 100.713 32.4477 100.488C32.5623 100.272 32.7253 100.087 32.924 99.9451C33.1508 99.7881 33.4008 99.6676 33.6649 99.5879C33.9355 99.5277 34.2094 99.4835 34.4852 99.4556C35.0452 99.4024 35.599 99.296 36.139 99.138C36.1435 99.0543 36.1435 98.9704 36.139 98.8866C36.1536 98.7431 36.1375 98.5982 36.0919 98.4613C36.0463 98.3245 35.9721 98.1989 35.8743 98.0928C35.572 97.8615 35.1956 97.7486 34.8159 97.7753C34.4787 97.7514 34.1421 97.8298 33.8501 98.0002C33.6003 98.2076 33.4355 98.4995 33.387 98.8205L32.4741 98.6882C32.5318 98.3462 32.6727 98.0236 32.8843 97.7488C33.1003 97.4905 33.3845 97.298 33.7046 97.1932C34.1066 97.0657 34.5265 97.0032 34.9482 97.0079C35.3337 96.9962 35.7185 97.0499 36.086 97.1667C36.3348 97.2501 36.558 97.3958 36.7343 97.5901C36.8865 97.7718 36.987 97.9912 37.0254 98.2251C37.048 98.5069 37.048 98.7901 37.0254 99.0719V100.316C36.9926 100.862 36.9926 101.41 37.0254 101.956C37.0669 102.188 37.1474 102.412 37.2635 102.618H36.3109C36.2265 102.42 36.173 102.21 36.1522 101.996ZM36.0728 99.9186C35.5848 100.09 35.0788 100.206 34.5645 100.263C34.2849 100.293 34.0096 100.355 33.7442 100.448C33.5981 100.512 33.4739 100.618 33.387 100.752C33.2962 100.884 33.2499 101.042 33.2547 101.202C33.253 101.318 33.2771 101.432 33.3251 101.538C33.3732 101.643 33.444 101.736 33.5326 101.811C33.7646 101.995 34.0575 102.084 34.3528 102.062C34.6901 102.068 35.023 101.986 35.3187 101.824C35.5838 101.682 35.797 101.46 35.9273 101.189C36.0423 100.894 36.0919 100.578 36.0728 100.263V99.9186Z" fill="#231F20"/>
<path d="M38.4675 102.67V97.1799H39.2878V97.9472C39.4663 97.6829 39.7013 97.4615 39.9758 97.2989C40.2768 97.1383 40.6136 97.0564 40.9548 97.0608C41.3074 97.0441 41.6571 97.1316 41.9603 97.3122C42.2164 97.4766 42.408 97.7242 42.5028 98.0134C42.6843 97.7149 42.9414 97.4697 43.248 97.3025C43.5546 97.1352 43.9 97.0518 44.2492 97.0608C44.4764 97.0445 44.7045 97.0762 44.9188 97.1537C45.133 97.2312 45.3286 97.3528 45.4928 97.5106C45.8061 97.8781 45.9671 98.3514 45.9427 98.8337V102.604H45.0165V99.2173C45.0264 98.9452 44.9951 98.6731 44.9239 98.4103C44.8602 98.2453 44.7439 98.1059 44.5932 98.0134C44.427 97.9096 44.2332 97.8589 44.0375 97.8678C43.8589 97.8633 43.6813 97.8949 43.5153 97.9609C43.3494 98.0268 43.1984 98.1257 43.0717 98.2515C42.7866 98.5951 42.6487 99.0373 42.688 99.482V102.67H41.7619V99.0983C41.7818 98.774 41.7034 98.4512 41.537 98.1721C41.4482 98.0642 41.334 97.9799 41.2048 97.9268C41.0755 97.8738 40.9351 97.8535 40.796 97.8678C40.5399 97.8663 40.2883 97.9349 40.0684 98.0663C39.8441 98.2113 39.6724 98.4247 39.5789 98.6749C39.4689 99.0483 39.4197 99.4369 39.4333 99.8259V102.67H38.4675Z" fill="#231F20"/>
<path d="M51.0364 100.911L52.0022 101.03C51.8797 101.555 51.5808 102.022 51.1555 102.353C50.6977 102.68 50.143 102.843 49.581 102.816C49.2288 102.837 48.8762 102.782 48.5474 102.654C48.2186 102.526 47.9213 102.329 47.6759 102.075C47.428 101.792 47.2385 101.463 47.1181 101.107C46.9978 100.75 46.9491 100.374 46.9747 99.9982C46.9197 99.2197 47.1713 98.4505 47.6759 97.8549C47.9114 97.6015 48.1987 97.4017 48.5183 97.2693C48.838 97.1369 49.1824 97.0749 49.5281 97.0876C49.8634 97.0766 50.1972 97.1369 50.5074 97.2647C50.8176 97.3924 51.0971 97.5846 51.3275 97.8285C51.8242 98.4179 52.0753 99.1759 52.0287 99.9453V100.183H47.9272C47.9439 100.67 48.1259 101.137 48.4432 101.507C48.59 101.664 48.7683 101.79 48.9666 101.874C49.1649 101.958 49.3788 102 49.5943 101.996C49.9079 102.002 50.2148 101.904 50.4675 101.718C50.7292 101.508 50.9264 101.228 51.0364 100.911ZM47.9802 99.4161H51.0496C51.0405 99.0393 50.9158 98.6745 50.6924 98.3709C50.5555 98.1986 50.38 98.0608 50.18 97.9689C49.9801 97.877 49.7613 97.8334 49.5413 97.8417C49.3432 97.8348 49.1458 97.8688 48.9614 97.9417C48.777 98.0145 48.6096 98.1246 48.4697 98.2651C48.1676 98.5682 47.9925 98.9751 47.9802 99.4029V99.4161Z" fill="#231F20"/>
<path d="M56.2227 102.671V95.0896H59.0805C59.4658 95.0807 59.8511 95.1073 60.2315 95.169C60.5694 95.2083 60.8922 95.331 61.1709 95.5262C61.4335 95.7118 61.6432 95.9626 61.7795 96.2538C61.9312 96.5765 62.008 96.9293 62.0044 97.2858C62.037 97.8838 61.838 98.4713 61.4487 98.9264C61.1409 99.1791 60.7858 99.3678 60.4041 99.4814C60.0224 99.595 59.6219 99.6312 59.226 99.5879H57.2282V102.671H56.2227ZM57.2282 98.7015H59.1863C59.6567 98.7327 60.1236 98.602 60.5093 98.331C60.6467 98.2005 60.7543 98.042 60.8251 97.8662C60.8959 97.6905 60.928 97.5015 60.9195 97.3123C60.93 97.0245 60.8464 96.7411 60.6813 96.5052C60.5317 96.2828 60.3058 96.1228 60.0463 96.0554C59.7339 96.0239 59.4192 96.0239 59.1069 96.0554H57.2282V98.7015Z" fill="#231F20"/>
<path d="M66.7409 102.67V101.863C66.5532 102.154 66.2941 102.392 65.9884 102.554C65.6826 102.716 65.3404 102.797 64.9945 102.789C64.6802 102.796 64.3685 102.732 64.0816 102.604C63.8362 102.509 63.6213 102.349 63.4597 102.141C63.3211 101.932 63.2225 101.698 63.1687 101.453C63.1485 101.162 63.1485 100.871 63.1687 100.58V97.1797H64.0948V100.223C64.0838 100.55 64.106 100.878 64.1609 101.202C64.2097 101.434 64.3414 101.641 64.5314 101.784C64.7371 101.926 64.9824 102 65.2326 101.996C65.5066 101.993 65.7754 101.92 66.0132 101.784C66.2514 101.65 66.4378 101.441 66.5424 101.188C66.6534 100.843 66.7027 100.48 66.6879 100.117V97.1797H67.6273V102.67H66.7409Z" fill="#231F20"/>
<path d="M69.043 102.67V97.1798H69.8765V98.0133C70.0111 97.7138 70.2152 97.4507 70.4718 97.2459C70.6452 97.1218 70.854 97.0569 71.0672 97.0607C71.406 97.0647 71.7366 97.1657 72.0198 97.3518L71.7023 98.225C71.4992 98.0874 71.2596 98.0137 71.0143 98.0133C70.8181 98.0142 70.6276 98.0793 70.4718 98.1985C70.3036 98.328 70.1827 98.5094 70.1279 98.7145C70.0186 99.0656 69.965 99.4317 69.9691 99.7994V102.67H69.043Z" fill="#231F20"/>
<path d="M76.1609 100.66L77.0738 100.779C76.9968 101.339 76.7252 101.854 76.3064 102.234C75.8833 102.595 75.3404 102.783 74.785 102.763C74.4485 102.778 74.1127 102.721 73.8002 102.595C73.4876 102.47 73.2054 102.279 72.9724 102.036C72.4875 101.441 72.2464 100.684 72.2976 99.9188C72.283 99.3879 72.3822 98.8601 72.5887 98.3708C72.7648 97.9427 73.0823 97.5878 73.4884 97.3653C73.8929 97.1414 74.3491 97.0273 74.8114 97.0346C75.3341 97.0107 75.8487 97.1698 76.2668 97.4844C76.6688 97.8168 76.929 98.2899 76.9944 98.8075L76.0948 98.953C76.0346 98.6324 75.8721 98.3399 75.6317 98.1195C75.411 97.9312 75.1279 97.8321 74.8379 97.8416C74.6225 97.8333 74.408 97.8742 74.2108 97.9613C74.0136 98.0485 73.8389 98.1795 73.7001 98.3444C73.3693 98.8043 73.2144 99.3676 73.2635 99.932C73.2123 100.503 73.362 101.074 73.6868 101.546C73.8168 101.711 73.9842 101.843 74.1752 101.93C74.3661 102.018 74.5751 102.058 74.785 102.049C75.1265 102.058 75.4584 101.935 75.7111 101.705C75.9762 101.418 76.1349 101.049 76.1609 100.66Z" fill="#231F20"/>
<path d="M77.8676 102.67V95.0894H78.7937V97.8148C78.9955 97.5735 79.2488 97.3804 79.535 97.2499C79.8212 97.1194 80.133 97.0547 80.4475 97.0607C80.8144 97.053 81.1777 97.1348 81.506 97.2988C81.7864 97.4411 82.0103 97.6743 82.141 97.9603C82.2937 98.3518 82.3613 98.7712 82.3395 99.1908V102.67H81.4134V99.1908C81.4427 98.8251 81.3342 98.4617 81.1091 98.172C80.9961 98.0617 80.8611 97.9764 80.7129 97.9217C80.5647 97.867 80.4067 97.8441 80.2491 97.8545C79.9753 97.8588 79.7069 97.9316 79.4685 98.0662C79.242 98.2042 79.0623 98.407 78.9525 98.6483C78.8333 98.9742 78.7794 99.3204 78.7937 99.6671V102.67H77.8676Z" fill="#231F20"/>
<path d="M87.3406 101.996C87.044 102.253 86.7092 102.463 86.3483 102.618C86.0172 102.736 85.6678 102.794 85.3163 102.79C84.8191 102.822 84.328 102.666 83.9404 102.353C83.7811 102.213 83.6547 102.04 83.5701 101.845C83.4855 101.651 83.4448 101.44 83.4508 101.228C83.4492 100.97 83.5129 100.715 83.6361 100.488C83.7507 100.272 83.9137 100.087 84.1124 99.9451C84.3219 99.8126 84.5491 99.7102 84.7871 99.6408C85.0581 99.5829 85.3319 99.5388 85.6074 99.5085C86.1716 99.4539 86.7296 99.3476 87.2744 99.191V98.9396C87.2917 98.796 87.277 98.6503 87.2312 98.513C87.1855 98.3758 87.1098 98.2504 87.0098 98.1458C86.7087 97.9122 86.3314 97.799 85.9514 97.8283C85.6143 97.806 85.2782 97.8843 84.9856 98.0532C84.7429 98.2664 84.5797 98.5556 84.5225 98.8735L83.6096 98.7412C83.6789 98.4027 83.8186 98.0827 84.0198 97.8018C84.2358 97.5435 84.52 97.351 84.84 97.2461C85.2421 97.1187 85.6619 97.0562 86.0837 97.0609C86.4736 97.0482 86.8628 97.1019 87.2347 97.2197C87.4818 97.3066 87.7041 97.4518 87.883 97.6431C88.0273 97.8282 88.1229 98.0465 88.1609 98.2781C88.1904 98.5596 88.1904 98.8434 88.1609 99.1249V100.369C88.1281 100.915 88.1281 101.463 88.1609 102.009C88.2023 102.241 88.2829 102.465 88.399 102.671H87.4332C87.36 102.454 87.3285 102.225 87.3406 101.996ZM87.2612 99.9187C86.7682 100.089 86.2579 100.204 85.7397 100.263C85.4643 100.292 85.1934 100.354 84.9327 100.448C84.7828 100.512 84.6543 100.618 84.5622 100.752C84.4714 100.884 84.4251 101.042 84.4299 101.202C84.4282 101.318 84.4523 101.432 84.5003 101.538C84.5484 101.643 84.6192 101.736 84.7077 101.811C84.9445 101.995 85.2418 102.085 85.5412 102.062C85.8742 102.068 86.2028 101.986 86.4938 101.824C86.7628 101.683 86.9804 101.461 87.1157 101.189C87.2241 100.893 87.2735 100.578 87.2612 100.263V99.9187Z" fill="#231F20"/>
<path d="M89.2325 101.03L90.1454 100.885C90.1808 101.211 90.3364 101.513 90.582 101.731C90.8664 101.947 91.218 102.055 91.5743 102.036C91.9128 102.059 92.249 101.966 92.5269 101.771C92.6206 101.696 92.6965 101.602 92.7491 101.494C92.8018 101.387 92.8298 101.269 92.8312 101.149C92.8313 101.051 92.8058 100.954 92.7571 100.868C92.7084 100.782 92.6382 100.71 92.5534 100.66C92.2501 100.515 91.9302 100.408 91.6008 100.342C91.1162 100.235 90.6424 100.085 90.1851 99.8923C89.9389 99.7848 89.7312 99.6048 89.5898 99.3763C89.4567 99.1523 89.388 98.896 89.3913 98.6354C89.3906 98.4012 89.445 98.17 89.5501 97.9607C89.6606 97.7539 89.8195 97.5769 90.0131 97.4447C90.1957 97.3213 90.3966 97.2275 90.6085 97.1669C90.8659 97.0903 91.1338 97.0545 91.4023 97.061C91.79 97.049 92.1763 97.1119 92.5401 97.2462C92.8253 97.3343 93.0754 97.5103 93.2546 97.749C93.4289 98.0019 93.5421 98.2917 93.5853 98.5957L92.6724 98.728C92.6617 98.5991 92.6244 98.4738 92.5629 98.36C92.5014 98.2462 92.4171 98.1462 92.3152 98.0665C92.0714 97.8866 91.7703 97.802 91.4685 97.8284C91.1494 97.7993 90.8293 97.8735 90.5556 98.0401C90.4725 98.0924 90.4036 98.1645 90.3552 98.2499C90.3067 98.3353 90.2801 98.4314 90.2777 98.5296C90.2786 98.6502 90.3206 98.7669 90.3968 98.8603C90.4959 98.9662 90.6182 99.0477 90.754 99.0985L91.5743 99.3366C92.0225 99.4596 92.464 99.6054 92.8974 99.7732C93.1466 99.8746 93.3621 100.044 93.5192 100.263C93.6722 100.498 93.7463 100.776 93.7309 101.057C93.7308 101.367 93.6387 101.671 93.4663 101.93C93.2729 102.212 93.0018 102.433 92.6857 102.565C92.3188 102.724 91.9213 102.801 91.5214 102.79C90.9459 102.825 90.3744 102.672 89.8941 102.353C89.5226 102.005 89.2879 101.536 89.2325 101.03Z" fill="#231F20"/>
<path d="M98.6923 100.911L99.6581 101.03C99.5356 101.555 99.2367 102.022 98.8114 102.353C98.3536 102.68 97.7989 102.843 97.2369 102.816C96.8847 102.837 96.5321 102.782 96.2033 102.654C95.8745 102.526 95.5772 102.329 95.3318 102.075C94.8277 101.505 94.5707 100.758 94.6173 99.9982C94.566 99.2179 94.8225 98.4484 95.3318 97.8549C95.5672 97.6015 95.8546 97.4017 96.1742 97.2693C96.4939 97.1369 96.8383 97.0749 97.184 97.0876C97.5193 97.0766 97.8531 97.1369 98.1633 97.2647C98.4735 97.3924 98.753 97.5846 98.9834 97.8285C99.4801 98.4179 99.7312 99.1759 99.6846 99.9453V100.183H95.5831C95.5998 100.67 95.7818 101.137 96.0991 101.507C96.2459 101.664 96.4242 101.79 96.6225 101.874C96.8208 101.958 97.0347 102 97.2502 101.996C97.5638 102.002 97.8707 101.904 98.1234 101.718C98.3851 101.508 98.5823 101.228 98.6923 100.911ZM95.6361 99.4161H98.7055C98.6964 99.0393 98.5717 98.6745 98.3483 98.3709C98.2114 98.1986 98.0359 98.0608 97.8359 97.9689C97.636 97.877 97.4172 97.8334 97.1972 97.8417C96.9991 97.8348 96.8017 97.8688 96.6173 97.9417C96.4329 98.0145 96.2655 98.1246 96.1256 98.2651C95.8188 98.565 95.6429 98.9739 95.6361 99.4029V99.4161Z" fill="#231F20"/>
<path d="M100.452 101.03L101.365 100.885C101.4 101.211 101.556 101.513 101.801 101.731C102.086 101.947 102.437 102.055 102.794 102.036C103.132 102.059 103.468 101.966 103.746 101.771C103.84 101.696 103.916 101.602 103.968 101.494C104.021 101.387 104.049 101.269 104.051 101.149C104.051 101.051 104.025 100.954 103.976 100.868C103.928 100.782 103.858 100.71 103.773 100.66C103.469 100.515 103.15 100.408 102.82 100.342C102.336 100.235 101.862 100.085 101.404 99.8923C101.158 99.7848 100.951 99.6048 100.809 99.3763C100.672 99.1534 100.599 98.8971 100.597 98.6354C100.601 98.4002 100.66 98.1691 100.769 97.9607C100.88 97.7539 101.039 97.5769 101.232 97.4447C101.41 97.321 101.607 97.2271 101.815 97.1669C102.077 97.0902 102.349 97.0545 102.622 97.061C103.009 97.049 103.396 97.1119 103.76 97.2462C104.043 97.3382 104.292 97.5134 104.474 97.749C104.648 98.0019 104.761 98.2917 104.805 98.5957L103.892 98.728C103.881 98.5991 103.844 98.4738 103.782 98.36C103.721 98.2462 103.636 98.1462 103.535 98.0665C103.291 97.8866 102.99 97.802 102.688 97.8284C102.369 97.7993 102.049 97.8735 101.775 98.0401C101.692 98.0924 101.623 98.1645 101.575 98.2499C101.526 98.3353 101.499 98.4314 101.497 98.5296C101.498 98.6502 101.54 98.7669 101.616 98.8603C101.715 98.9662 101.838 99.0477 101.973 99.0985L102.794 99.3366C103.455 99.5219 103.905 99.6674 104.117 99.7732C104.364 99.8715 104.576 100.042 104.725 100.263C104.883 100.497 104.962 100.775 104.95 101.057C104.95 101.367 104.858 101.671 104.686 101.93C104.49 102.216 104.214 102.437 103.892 102.565C103.53 102.725 103.136 102.802 102.741 102.79C102.174 102.82 101.613 102.667 101.14 102.353C100.754 102.013 100.508 101.541 100.452 101.03Z" fill="#231F20"/>
<path d="M108.35 102.803L110.547 94.957H111.301L109.105 102.803H108.35Z" fill="#231F20"/>
<path d="M120.02 95.0894H120.985V99.4686C121.01 100.083 120.925 100.697 120.734 101.281C120.553 101.742 120.222 102.129 119.795 102.379C119.255 102.683 118.641 102.83 118.022 102.803C117.423 102.822 116.828 102.695 116.289 102.432C115.852 102.204 115.51 101.829 115.323 101.374C115.102 100.764 115.003 100.117 115.032 99.4686V95.0894H116.024V99.4686C116.004 99.9607 116.067 100.453 116.209 100.924C116.338 101.225 116.561 101.475 116.844 101.638C117.182 101.817 117.561 101.904 117.942 101.89C118.225 101.919 118.511 101.889 118.782 101.803C119.053 101.716 119.303 101.575 119.517 101.387C119.89 100.821 120.054 100.143 119.98 99.4686L120.02 95.0894Z" fill="#231F20"/>
<path d="M122.203 101.03L123.129 100.885C123.161 101.209 123.311 101.511 123.552 101.731C123.837 101.947 124.188 102.055 124.544 102.036C124.883 102.059 125.219 101.966 125.497 101.771C125.593 101.698 125.67 101.604 125.723 101.496C125.776 101.388 125.803 101.269 125.801 101.149C125.804 101.052 125.781 100.955 125.735 100.869C125.688 100.783 125.62 100.711 125.537 100.66C125.232 100.52 124.912 100.413 124.584 100.342C124.099 100.238 123.625 100.087 123.169 99.8923C122.917 99.787 122.705 99.6068 122.56 99.3763C122.427 99.1523 122.358 98.8959 122.361 98.6354C122.358 98.3992 122.417 98.1662 122.533 97.9607C122.639 97.7545 122.793 97.5773 122.983 97.4447C123.166 97.3213 123.367 97.2275 123.579 97.1668C123.841 97.0902 124.113 97.0544 124.386 97.061C124.769 97.0491 125.151 97.112 125.51 97.2462C125.797 97.3381 126.051 97.513 126.238 97.749C126.413 98.0001 126.522 98.2913 126.556 98.5957L125.643 98.728C125.632 98.5991 125.595 98.4738 125.533 98.36C125.472 98.2461 125.387 98.1462 125.285 98.0665C125.046 97.8886 124.749 97.804 124.452 97.8284C124.132 97.7953 123.811 97.8698 123.539 98.0401C123.456 98.0924 123.387 98.1645 123.339 98.2499C123.29 98.3353 123.263 98.4314 123.261 98.5296C123.264 98.6478 123.3 98.7627 123.367 98.8603C123.466 98.9662 123.588 99.0477 123.724 99.0985L124.544 99.3366C125.206 99.5219 125.647 99.6674 125.868 99.7732C126.113 99.8749 126.324 100.045 126.476 100.263C126.634 100.497 126.713 100.775 126.701 101.057C126.702 101.37 126.605 101.675 126.423 101.93C126.233 102.215 125.961 102.436 125.643 102.565C125.276 102.724 124.878 102.801 124.478 102.79C123.903 102.825 123.331 102.672 122.851 102.353C122.484 102.003 122.255 101.534 122.203 101.03Z" fill="#231F20"/>
<path d="M131.57 100.911L132.536 101.03C132.413 101.555 132.114 102.022 131.689 102.353C131.16 102.697 130.531 102.857 129.902 102.807C129.272 102.757 128.677 102.499 128.209 102.075C127.742 101.479 127.523 100.725 127.601 99.9713C127.549 99.1909 127.806 98.4215 128.315 97.828C128.807 97.3589 129.461 97.0972 130.141 97.0972C130.821 97.0972 131.475 97.3589 131.967 97.828C132.459 98.4194 132.705 99.1772 132.655 99.9448V100.183H128.553C128.57 100.67 128.752 101.136 129.069 101.506C129.216 101.664 129.394 101.789 129.593 101.873C129.791 101.958 130.005 101.999 130.22 101.996C130.535 102.01 130.845 101.911 131.094 101.718C131.325 101.499 131.49 101.219 131.57 100.911ZM128.514 99.4156H131.583C131.574 99.0389 131.449 98.674 131.226 98.3704C131.089 98.1981 130.913 98.0604 130.713 97.9684C130.513 97.8765 130.295 97.8329 130.075 97.8412C129.877 97.8343 129.679 97.8684 129.495 97.9412C129.31 98.0141 129.143 98.1241 129.003 98.2646C128.726 98.5791 128.571 98.983 128.567 99.4024L128.514 99.4156Z" fill="#231F20"/>
<path d="M133.74 102.671V97.18H134.586V98.0135C134.722 97.718 134.92 97.456 135.168 97.2461C135.346 97.1202 135.56 97.0551 135.777 97.0609C136.115 97.0684 136.445 97.1692 136.73 97.352L136.412 98.2252C136.207 98.0924 135.969 98.0191 135.724 98.0135C135.528 98.0144 135.337 98.0795 135.182 98.1987C135.01 98.3275 134.885 98.5086 134.824 98.7147C134.726 99.0679 134.677 99.433 134.679 99.7996V102.671H133.74Z" fill="#231F20"/>
<path d="M136.862 101.03L137.788 100.884C137.823 101.211 137.979 101.513 138.225 101.731C138.513 101.916 138.848 102.015 139.191 102.015C139.533 102.015 139.868 101.916 140.156 101.731C140.254 101.659 140.333 101.565 140.389 101.458C140.444 101.35 140.473 101.23 140.474 101.109C140.474 101.01 140.448 100.913 140.4 100.828C140.351 100.742 140.281 100.67 140.196 100.62C139.891 100.48 139.571 100.373 139.243 100.302C138.759 100.195 138.285 100.045 137.828 99.8523C137.582 99.7447 137.374 99.5648 137.232 99.3363C137.09 99.1158 137.016 98.8579 137.021 98.5954C137.017 98.3592 137.076 98.1262 137.193 97.9206C137.298 97.7144 137.453 97.5373 137.643 97.4047C137.825 97.2812 138.026 97.1875 138.238 97.1268C138.5 97.0501 138.772 97.0144 139.045 97.021C139.433 97.009 139.819 97.0719 140.183 97.2062C140.464 97.3017 140.712 97.4763 140.897 97.709C141.072 97.9601 141.182 98.2513 141.215 98.5557L140.315 98.688C140.304 98.5576 140.266 98.4311 140.202 98.317C140.138 98.2028 140.05 98.1038 139.945 98.0265C139.706 97.8464 139.409 97.7615 139.111 97.7883C138.792 97.7592 138.472 97.8335 138.198 98C138.115 98.0524 138.046 98.1245 137.998 98.2099C137.949 98.2953 137.923 98.3914 137.92 98.4895C137.921 98.6101 137.963 98.7268 138.039 98.8203C138.139 98.9262 138.261 99.0077 138.397 99.0585C138.666 99.1524 138.94 99.2319 139.217 99.2966C139.878 99.4818 140.328 99.6274 140.54 99.7332C140.788 99.8314 141 100.002 141.149 100.223C141.306 100.457 141.385 100.735 141.374 101.017C141.375 101.33 141.277 101.635 141.096 101.89C140.908 102.178 140.635 102.4 140.315 102.525C139.953 102.685 139.56 102.762 139.164 102.75C138.589 102.785 138.017 102.632 137.537 102.313C137.165 101.98 136.925 101.525 136.862 101.03Z" fill="#231F20"/>
<path d="M146.811 95.0894H145.806V102.67H146.811V95.0894Z" fill="#231F20"/>
<path d="M148.452 102.67V97.1798H149.285V97.9603C149.472 97.6708 149.732 97.4353 150.038 97.2775C150.345 97.1196 150.687 97.0449 151.032 97.0607C151.345 97.055 151.655 97.1135 151.945 97.2327C152.195 97.325 152.412 97.4911 152.566 97.709C152.718 97.9111 152.818 98.1473 152.857 98.3969C152.887 98.6961 152.887 98.9974 152.857 99.2966V102.67H151.931V99.3363C151.941 99.0459 151.905 98.7557 151.826 98.4763C151.748 98.29 151.614 98.1326 151.442 98.0265C151.243 97.919 151.02 97.8644 150.794 97.8677C150.415 97.8587 150.048 97.9907 149.762 98.2382C149.593 98.4325 149.467 98.6602 149.392 98.9063C149.316 99.1524 149.294 99.4116 149.325 99.6671V102.67H148.452Z" fill="#231F20"/>
<path d="M156.377 101.837L156.509 102.657C156.278 102.706 156.044 102.733 155.808 102.737C155.534 102.752 155.261 102.697 155.014 102.578C154.838 102.489 154.701 102.338 154.63 102.155C154.526 101.799 154.486 101.427 154.511 101.056V97.9077H153.823V97.18H154.511V95.8569L155.437 95.3013V97.2197H156.377V97.9473H155.385V101.149C155.354 101.32 155.354 101.494 155.385 101.665L155.543 101.85C155.647 101.877 155.757 101.877 155.861 101.85L156.377 101.837Z" fill="#231F20"/>
<path d="M161.034 100.911L162 101.03C161.883 101.558 161.583 102.027 161.153 102.353C160.7 102.68 160.15 102.844 159.592 102.816C159.238 102.836 158.884 102.78 158.553 102.652C158.222 102.524 157.922 102.328 157.673 102.075C157.179 101.5 156.928 100.755 156.972 99.9982C156.921 99.2178 157.177 98.4484 157.687 97.8548C158.179 97.3857 158.833 97.124 159.512 97.124C160.192 97.124 160.846 97.3857 161.338 97.8548C161.83 98.4463 162.076 99.204 162.026 99.9717V100.21H157.938C157.946 100.696 158.123 101.164 158.441 101.533C158.587 101.691 158.766 101.816 158.964 101.9C159.162 101.985 159.376 102.026 159.592 102.022C159.907 102.037 160.216 101.938 160.465 101.745C160.735 101.531 160.933 101.24 161.034 100.911ZM158.031 99.4028H161.1C161.088 99.0286 160.969 98.6656 160.756 98.3576C160.618 98.2013 160.45 98.0743 160.261 97.9841C160.073 97.8939 159.869 97.8423 159.66 97.8324C159.452 97.8226 159.244 97.8546 159.048 97.9266C158.852 97.9986 158.673 98.1092 158.52 98.2518C158.22 98.5618 158.046 98.9718 158.031 99.4028Z" fill="#231F20"/>
<path d="M163.151 102.671V97.18H163.998V98.0135C164.133 97.718 164.332 97.456 164.58 97.2461C164.757 97.1202 164.971 97.0551 165.188 97.0609C165.526 97.0684 165.856 97.1692 166.141 97.352L165.823 98.2252C165.618 98.0924 165.38 98.0191 165.135 98.0135C164.95 98.0441 164.779 98.132 164.646 98.2649C164.478 98.3974 164.353 98.5771 164.289 98.7809C164.19 99.134 164.141 99.4991 164.143 99.8657V102.737L163.151 102.671Z" fill="#231F20"/>
<path d="M170.269 101.996C169.972 102.253 169.637 102.463 169.276 102.618C168.95 102.736 168.605 102.794 168.258 102.79C167.778 102.809 167.308 102.654 166.935 102.353C166.775 102.213 166.649 102.04 166.564 101.845C166.48 101.651 166.439 101.44 166.445 101.229C166.443 100.97 166.507 100.715 166.63 100.488C166.745 100.272 166.908 100.087 167.107 99.9452C167.316 99.8126 167.543 99.7102 167.781 99.6409C168.052 99.5807 168.326 99.5365 168.602 99.5086C169.162 99.4554 169.716 99.349 170.256 99.191C170.26 99.1073 170.26 99.0234 170.256 98.9397C170.27 98.7961 170.254 98.6512 170.208 98.5143C170.163 98.3775 170.089 98.2519 169.991 98.1458C169.689 97.9145 169.312 97.8016 168.932 97.8283C168.595 97.8044 168.259 97.8828 167.967 98.0532C167.717 98.2606 167.552 98.5525 167.504 98.8735L166.591 98.7412C166.654 98.401 166.794 98.0797 167.001 97.8018C167.217 97.5435 167.501 97.351 167.821 97.2462C168.223 97.1187 168.643 97.0562 169.065 97.0609C169.45 97.0481 169.835 97.1019 170.203 97.2197C170.453 97.2997 170.677 97.446 170.851 97.6431C171.003 97.8249 171.104 98.0442 171.142 98.2781C171.165 98.5599 171.165 98.8431 171.142 99.1249V100.369C171.109 100.915 171.109 101.463 171.142 102.009C171.183 102.241 171.264 102.465 171.38 102.671H170.401C170.32 102.454 170.276 102.227 170.269 101.996ZM170.189 99.9187C169.701 100.091 169.195 100.206 168.681 100.263C168.401 100.293 168.126 100.355 167.861 100.448C167.715 100.512 167.591 100.618 167.504 100.752C167.413 100.884 167.366 101.042 167.371 101.202C167.37 101.318 167.394 101.432 167.442 101.538C167.49 101.643 167.561 101.736 167.649 101.811C167.881 101.995 168.174 102.084 168.469 102.062C168.807 102.07 169.14 101.987 169.435 101.824C169.7 101.682 169.914 101.46 170.044 101.189C170.159 100.894 170.209 100.578 170.189 100.263V99.9187Z" fill="#231F20"/>
<path d="M176.156 100.66L177.069 100.779C177.01 101.352 176.736 101.882 176.302 102.26C175.883 102.619 175.345 102.808 174.794 102.79C174.457 102.806 174.121 102.749 173.808 102.624C173.495 102.498 173.213 102.307 172.981 102.062C172.487 101.472 172.24 100.713 172.293 99.9451C172.286 99.4149 172.385 98.8885 172.584 98.3972C172.765 97.9718 173.081 97.6182 173.484 97.3917C173.888 97.1677 174.344 97.0537 174.807 97.0609C175.333 97.0372 175.852 97.1961 176.275 97.5107C176.672 97.8473 176.931 98.3183 177.003 98.8338L176.09 98.9793C176.034 98.6601 175.877 98.3675 175.64 98.1458C175.418 97.9608 175.136 97.8621 174.846 97.868C174.631 97.8596 174.417 97.9005 174.219 97.9877C174.022 98.0748 173.847 98.2058 173.709 98.3707C173.368 98.8262 173.207 99.3917 173.259 99.9584C173.214 100.529 173.363 101.097 173.682 101.572C173.818 101.734 173.989 101.863 174.181 101.95C174.373 102.037 174.583 102.08 174.794 102.075C175.131 102.081 175.457 101.958 175.706 101.731C175.982 101.441 176.142 101.06 176.156 100.66Z" fill="#231F20"/>
<path d="M179.9 101.837L180.033 102.657C179.802 102.708 179.567 102.734 179.332 102.737C179.062 102.75 178.794 102.696 178.551 102.578C178.374 102.486 178.234 102.337 178.154 102.155C178.05 101.799 178.009 101.427 178.035 101.056V97.9077H177.36V97.18H178.035V95.8569L178.961 95.3013V97.2197H179.9V97.9473H178.961V101.149C178.937 101.32 178.937 101.494 178.961 101.665L179.12 101.85C179.224 101.874 179.333 101.874 179.437 101.85L179.9 101.837Z" fill="#231F20"/>
<path d="M10.3794 108.981H181.025V107.658H10.3794" fill="#231F20"/>
<path d="M19.4554 116.959C19.4188 116.482 19.4784 116.001 19.6306 115.547C19.7829 115.092 20.0247 114.673 20.3419 114.313C20.6354 114.005 20.9915 113.763 21.3862 113.603C21.781 113.443 22.2053 113.37 22.6307 113.387C23.2115 113.379 23.7833 113.53 24.2845 113.824C24.7684 114.113 25.1588 114.536 25.4091 115.041C25.6692 115.6 25.8003 116.211 25.7928 116.827C25.8061 117.452 25.6652 118.07 25.3826 118.627C25.1386 119.141 24.7349 119.564 24.2316 119.831C23.7382 120.105 23.182 120.246 22.6175 120.241C22.0303 120.253 21.4519 120.096 20.9505 119.791C20.4688 119.493 20.0795 119.067 19.8259 118.56C19.5862 118.06 19.4597 117.514 19.4554 116.959ZM20.3551 116.959C20.3189 117.646 20.5514 118.32 21.0034 118.838C21.2113 119.06 21.4623 119.236 21.7411 119.357C22.0198 119.478 22.3204 119.54 22.6241 119.54C22.9279 119.54 23.2284 119.478 23.5071 119.357C23.7859 119.236 24.037 119.06 24.2448 118.838C24.7047 118.283 24.9364 117.573 24.8931 116.854C24.9015 116.376 24.8067 115.902 24.6153 115.464C24.448 115.077 24.1665 114.749 23.8082 114.525C23.4571 114.301 23.0473 114.186 22.6307 114.194C22.3352 114.19 22.0418 114.244 21.7671 114.353C21.4924 114.462 21.2419 114.624 21.0298 114.829C20.7777 115.122 20.5879 115.463 20.4719 115.832C20.3559 116.2 20.3161 116.588 20.3551 116.973V116.959Z" fill="#231F20"/>
<path d="M26.8247 120.188V115.385H27.5524V116.06C27.7143 115.806 27.9401 115.599 28.2071 115.46C28.4741 115.32 28.773 115.254 29.0739 115.266C29.3509 115.264 29.6255 115.318 29.881 115.425C30.0944 115.512 30.2814 115.653 30.4234 115.835C30.5518 116.016 30.6377 116.224 30.6748 116.444C30.6969 116.708 30.6969 116.973 30.6748 117.237V120.188H29.8545V117.264C29.8683 117.013 29.837 116.762 29.7619 116.523C29.7006 116.353 29.578 116.211 29.4179 116.126C29.2491 116.029 29.0572 115.978 28.8622 115.981C28.5315 115.974 28.2106 116.092 27.9626 116.311C27.8151 116.48 27.7047 116.678 27.6386 116.892C27.5725 117.107 27.5522 117.332 27.5789 117.555V120.201L26.8247 120.188Z" fill="#231F20"/>
<path d="M32.7784 113.559H31.9581V120.188H32.7784V113.559Z" fill="#231F20"/>
<path d="M34.0353 114.485V113.559H34.8424V114.485H34.0353ZM34.0353 120.188V115.385H34.8424V120.188H34.0353Z" fill="#231F20"/>
<path d="M36.086 120.188V115.385H36.8137V116.06C36.9777 115.805 37.2058 115.597 37.4751 115.458C37.7444 115.319 38.0455 115.252 38.3484 115.266C38.6213 115.262 38.8918 115.316 39.1423 115.425C39.3557 115.512 39.5427 115.653 39.6847 115.835C39.8131 116.016 39.899 116.224 39.9361 116.443C39.9651 116.707 39.9651 116.973 39.9361 117.237V120.188H39.1158V117.264C39.1296 117.013 39.0983 116.762 39.0232 116.523C38.9631 116.356 38.846 116.215 38.6924 116.126C38.5188 116.028 38.3226 115.978 38.1235 115.98C37.7928 115.974 37.4718 116.092 37.2238 116.311C37.0764 116.48 36.966 116.678 36.8999 116.892C36.8338 117.106 36.8135 117.332 36.8402 117.555V120.201L36.086 120.188Z" fill="#231F20"/>
<path d="M44.527 118.64L45.3605 118.746C45.2564 119.197 44.9993 119.599 44.6329 119.883C44.2481 120.16 43.7837 120.304 43.3098 120.294C42.9957 120.312 42.6811 120.264 42.3868 120.153C42.0926 120.041 41.8255 119.868 41.6031 119.645C41.1699 119.139 40.9515 118.484 40.9945 117.819C40.9473 117.138 41.1654 116.465 41.6031 115.941C41.8074 115.718 42.0575 115.543 42.3362 115.426C42.6148 115.31 42.9154 115.255 43.2172 115.266C43.5119 115.256 43.8053 115.31 44.0771 115.424C44.3489 115.538 44.5927 115.71 44.7916 115.928C45.2229 116.445 45.4405 117.107 45.4002 117.78V117.991H41.8016C41.8088 118.437 41.9675 118.866 42.2514 119.209C42.3805 119.344 42.5368 119.451 42.7101 119.522C42.8835 119.592 43.0698 119.625 43.2569 119.619C43.5298 119.625 43.7978 119.546 44.0243 119.394C44.2594 119.195 44.4336 118.933 44.527 118.64ZM41.881 117.317H44.527C44.5251 116.992 44.4184 116.676 44.2227 116.417C44.1043 116.264 43.9516 116.141 43.7769 116.059C43.6022 115.976 43.4105 115.936 43.2172 115.941C42.8674 115.935 42.5297 116.068 42.2779 116.311C42.0173 116.582 41.8665 116.941 41.8545 117.317H41.881Z" fill="#231F20"/>
<path d="M49.0386 120.188V113.572H50.3616L51.9228 118.243C52.0639 118.684 52.1698 119.014 52.2403 119.235L52.5976 118.163L54.1852 113.559H55.3627V120.174H54.516V114.618L52.5976 120.174H51.8037L49.8853 114.538V120.188H49.0386Z" fill="#231F20"/>
<path d="M59.8213 120.187V119.433C59.6598 119.689 59.4348 119.899 59.1683 120.043C58.9017 120.187 58.6026 120.259 58.2999 120.254C58.027 120.257 57.7565 120.203 57.506 120.095C57.2903 120.005 57.0996 119.864 56.9503 119.685C56.8272 119.5 56.7418 119.294 56.699 119.076C56.6803 118.825 56.6803 118.573 56.699 118.322V115.385H57.4796V118.031C57.4496 118.317 57.4496 118.605 57.4796 118.891C57.5234 119.094 57.6413 119.273 57.8103 119.394C57.9878 119.52 58.2014 119.585 58.4189 119.579C58.6609 119.581 58.8988 119.517 59.1069 119.394C59.3099 119.276 59.4681 119.095 59.5567 118.878C59.6607 118.576 59.7056 118.257 59.689 117.938V115.385H60.5093V120.187H59.8213Z" fill="#231F20"/>
<path d="M61.4487 118.745L62.2558 118.626C62.2818 118.911 62.414 119.175 62.6262 119.367C62.8785 119.551 63.1878 119.64 63.4994 119.618C63.7946 119.639 64.0881 119.56 64.3329 119.394C64.4123 119.329 64.4769 119.249 64.5226 119.158C64.5682 119.066 64.5938 118.966 64.5975 118.864C64.5991 118.777 64.578 118.691 64.5362 118.615C64.4945 118.538 64.4335 118.474 64.3594 118.428C64.0957 118.297 63.8152 118.204 63.5259 118.15C63.0992 118.059 62.6827 117.926 62.2822 117.753C62.0713 117.658 61.8926 117.503 61.7681 117.308C61.6436 117.113 61.5785 116.886 61.581 116.655C61.5822 116.448 61.6321 116.244 61.7265 116.059C61.8262 115.884 61.9613 115.73 62.1234 115.61C62.2858 115.502 62.4645 115.422 62.6527 115.371C62.8797 115.301 63.1161 115.265 63.3539 115.266C63.6922 115.264 64.028 115.323 64.3462 115.438C64.5917 115.519 64.8079 115.671 64.968 115.874C65.1244 116.094 65.2243 116.348 65.2591 116.615L64.452 116.734C64.4441 116.621 64.413 116.512 64.3607 116.411C64.3083 116.311 64.2358 116.223 64.1477 116.152C63.9334 115.996 63.671 115.922 63.4068 115.94C63.1293 115.917 62.8515 115.982 62.613 116.126C62.5405 116.173 62.4809 116.238 62.4394 116.314C62.3979 116.39 62.3757 116.476 62.3748 116.562L62.4674 116.84C62.5483 116.945 62.659 117.024 62.785 117.065L63.4994 117.277C63.9081 117.375 64.3102 117.499 64.7034 117.647C64.9204 117.734 65.1084 117.881 65.2458 118.07C65.3717 118.282 65.4358 118.525 65.431 118.772C65.4331 119.046 65.3499 119.314 65.1929 119.539C65.0255 119.785 64.7914 119.978 64.5182 120.095C64.1958 120.23 63.849 120.298 63.4994 120.293C62.9918 120.327 62.4878 120.187 62.0705 119.896C61.723 119.607 61.5003 119.195 61.4487 118.745Z" fill="#231F20"/>
<path d="M66.463 114.485V113.559H67.2701V114.485H66.463ZM66.463 120.188V115.385H67.2701V120.188H66.463Z" fill="#231F20"/>
<path d="M71.6493 118.428L72.4432 118.534C72.3988 119.043 72.1622 119.516 71.7817 119.857C71.4142 120.173 70.9432 120.342 70.4586 120.333C70.1649 120.346 69.8718 120.294 69.5999 120.183C69.328 120.071 69.0838 119.901 68.8842 119.685C68.4456 119.171 68.2269 118.506 68.2756 117.833C68.2708 117.378 68.3609 116.927 68.5402 116.509C68.6883 116.135 68.965 115.825 69.3208 115.636C69.6712 115.436 70.0681 115.331 70.4718 115.332C70.9463 115.3 71.4162 115.441 71.7949 115.729C72.1396 116.013 72.3698 116.413 72.4432 116.853L71.6493 116.986C71.5984 116.707 71.4593 116.452 71.2524 116.258C71.0582 116.09 70.8081 116 70.5512 116.007C70.3622 116.003 70.1746 116.041 70.0011 116.116C69.8277 116.191 69.6724 116.303 69.5457 116.443C69.2603 116.853 69.1248 117.348 69.162 117.846C69.1231 118.342 69.2537 118.836 69.5325 119.248C69.6528 119.389 69.8032 119.502 69.9726 119.577C70.142 119.653 70.3261 119.69 70.5115 119.685C70.8042 119.696 71.0894 119.592 71.3054 119.394C71.5323 119.124 71.6544 118.781 71.6493 118.428Z" fill="#231F20"/>
<path d="M75.8169 120.188V113.559H76.7166L80.1962 118.759V113.559H81.0297V120.188H80.13L76.6504 114.975V120.188H75.8169Z" fill="#231F20"/>
<path d="M82.1014 117.779C82.0722 117.417 82.1235 117.052 82.2516 116.711C82.3796 116.37 82.5813 116.062 82.8423 115.808C83.26 115.446 83.7978 115.253 84.3505 115.266C84.6529 115.256 84.9539 115.31 85.2341 115.424C85.5144 115.538 85.7677 115.71 85.9779 115.927C86.1918 116.17 86.3557 116.453 86.4602 116.76C86.5646 117.066 86.6075 117.39 86.5865 117.713C86.6104 118.214 86.5152 118.712 86.3086 119.169C86.13 119.522 85.8486 119.812 85.5016 120.002C85.143 120.193 84.7433 120.293 84.3373 120.293C84.0357 120.306 83.7348 120.255 83.4544 120.143C83.1739 120.031 82.9203 119.862 82.7099 119.645C82.2755 119.124 82.0576 118.456 82.1014 117.779ZM82.9349 117.779C82.9117 118.255 83.057 118.723 83.345 119.102C83.4692 119.25 83.6241 119.369 83.799 119.45C83.9738 119.531 84.1643 119.573 84.3571 119.573C84.55 119.573 84.7405 119.531 84.9153 119.45C85.0901 119.369 85.2451 119.25 85.3693 119.102C85.6655 118.698 85.8064 118.2 85.7662 117.7C85.7965 117.224 85.6505 116.753 85.356 116.377C85.2318 116.232 85.0776 116.115 84.904 116.035C84.7305 115.955 84.5416 115.914 84.3505 115.914C84.1594 115.914 83.9706 115.955 83.797 116.035C83.6234 116.115 83.4692 116.232 83.345 116.377C83.0349 116.775 82.8883 117.277 82.9349 117.779Z" fill="#231F20"/>
<path d="M89.3384 119.434L89.4442 120.148C89.242 120.171 89.0378 120.171 88.8356 120.148C88.5988 120.162 88.3623 120.117 88.1477 120.016C87.9951 119.934 87.8741 119.803 87.8037 119.645C87.7213 119.33 87.6901 119.004 87.711 118.679V116.02H87.1024V115.385H87.711V114.141L88.5181 113.652V115.332H89.3384V115.967H88.5181V118.772C88.4967 118.921 88.4967 119.073 88.5181 119.222L88.6636 119.381C88.7543 119.407 88.8508 119.407 88.9415 119.381L89.3384 119.434Z" fill="#231F20"/>
<path d="M92.818 120.188V113.572H95.7551C96.2027 113.555 96.65 113.613 97.0782 113.744C97.3892 113.867 97.6501 114.091 97.8191 114.38C98.0024 114.678 98.0986 115.022 98.0969 115.372C98.1026 115.591 98.0645 115.809 97.985 116.014C97.9055 116.218 97.7861 116.405 97.6339 116.563C97.2524 116.926 96.7568 117.146 96.2314 117.184C96.4208 117.265 96.5953 117.377 96.7474 117.515C97.0306 117.773 97.2796 118.067 97.4883 118.388L98.6394 120.201H97.528L96.6548 118.878C96.4603 118.562 96.2482 118.257 96.0197 117.965C95.8989 117.797 95.7515 117.649 95.5832 117.528C95.4598 117.443 95.3201 117.385 95.173 117.356C95.0104 117.337 94.8461 117.337 94.6835 117.356H93.6647V120.307L92.818 120.188ZM93.6912 116.483H95.5832C95.9017 116.496 96.2199 116.451 96.5225 116.351C96.7347 116.281 96.9168 116.141 97.0385 115.954C97.1547 115.777 97.2147 115.57 97.2105 115.359C97.2157 115.213 97.1874 115.068 97.1278 114.935C97.0681 114.802 96.9787 114.684 96.8665 114.591C96.5572 114.365 96.177 114.257 95.7948 114.287H93.6912V116.483Z" fill="#231F20"/>
<path d="M102.529 119.592C102.269 119.819 101.974 120.002 101.656 120.134C101.368 120.242 101.063 120.295 100.756 120.293C100.317 120.322 99.8825 120.185 99.539 119.91C99.4027 119.783 99.2946 119.629 99.2216 119.459C99.1487 119.288 99.1126 119.103 99.1157 118.917C99.1123 118.691 99.167 118.468 99.2744 118.269C99.3791 118.085 99.5238 117.927 99.6978 117.806C99.8744 117.683 100.072 117.594 100.28 117.541L101.008 117.409C101.502 117.376 101.991 117.282 102.463 117.131V116.919C102.475 116.792 102.46 116.664 102.419 116.543C102.378 116.422 102.312 116.312 102.225 116.218C101.962 116.012 101.631 115.913 101.299 115.94C101.001 115.922 100.706 115.996 100.452 116.152C100.245 116.335 100.105 116.582 100.055 116.853L99.2612 116.747C99.312 116.449 99.4346 116.168 99.6184 115.927C99.8046 115.699 100.053 115.529 100.333 115.438C100.683 115.322 101.049 115.264 101.418 115.266C101.775 115.27 102.129 115.337 102.463 115.464C102.677 115.545 102.871 115.671 103.032 115.835C103.158 115.998 103.244 116.188 103.283 116.39C103.304 116.641 103.304 116.893 103.283 117.144V118.229C103.25 118.705 103.25 119.182 103.283 119.658C103.311 119.863 103.379 120.061 103.482 120.24H102.635C102.563 120.032 102.528 119.813 102.529 119.592ZM102.529 117.779C102.079 117.938 101.613 118.049 101.14 118.11C100.897 118.136 100.657 118.189 100.425 118.269C100.298 118.327 100.188 118.418 100.108 118.534C100.035 118.648 99.998 118.782 100.002 118.917C99.9989 119.02 100.019 119.122 100.06 119.215C100.101 119.309 100.163 119.393 100.24 119.46C100.448 119.62 100.706 119.7 100.968 119.685C101.259 119.684 101.545 119.611 101.801 119.473C102.034 119.346 102.223 119.153 102.344 118.917C102.435 118.658 102.475 118.384 102.463 118.11L102.529 117.779Z" fill="#231F20"/>
<path d="M106.313 119.434L106.432 120.148C106.23 120.171 106.026 120.171 105.823 120.148C105.586 120.167 105.349 120.121 105.135 120.016C104.983 119.934 104.862 119.803 104.791 119.645C104.703 119.331 104.667 119.005 104.686 118.679V116.02H104.09V115.385H104.686V114.141L105.493 113.652V115.332H106.313V115.967H105.493V118.772C105.469 118.921 105.469 119.073 105.493 119.222L105.625 119.381C105.716 119.405 105.812 119.405 105.903 119.381L106.313 119.434Z" fill="#231F20"/>
<path d="M110.401 118.639L111.248 118.745C111.139 119.199 110.878 119.6 110.507 119.883C110.045 120.187 109.496 120.329 108.945 120.286C108.394 120.242 107.873 120.017 107.464 119.645C107.027 119.14 106.804 118.485 106.842 117.819C106.799 117.136 107.022 116.463 107.464 115.94C107.669 115.719 107.92 115.545 108.198 115.428C108.477 115.312 108.777 115.257 109.078 115.266C109.371 115.256 109.662 115.311 109.931 115.425C110.201 115.539 110.442 115.711 110.639 115.927C111.075 116.443 111.298 117.105 111.261 117.779V117.991H107.755C107.752 118.436 107.907 118.867 108.192 119.208C108.321 119.344 108.477 119.451 108.65 119.521C108.824 119.592 109.01 119.625 109.197 119.618C109.47 119.624 109.738 119.546 109.965 119.394C110.179 119.189 110.331 118.927 110.401 118.639ZM107.755 117.316H110.401C110.389 116.991 110.278 116.677 110.084 116.417C109.965 116.264 109.813 116.141 109.638 116.058C109.463 115.976 109.271 115.935 109.078 115.94C108.728 115.935 108.391 116.068 108.139 116.311C107.893 116.588 107.756 116.946 107.755 117.316Z" fill="#231F20"/>
<path d="M115.376 120.188V119.579C115.238 119.804 115.043 119.989 114.811 120.115C114.578 120.24 114.317 120.302 114.053 120.293C113.676 120.296 113.307 120.185 112.994 119.976C112.668 119.757 112.41 119.45 112.253 119.089C112.061 118.676 111.971 118.222 111.989 117.766C111.979 117.314 112.06 116.864 112.227 116.443C112.363 116.081 112.608 115.77 112.927 115.552C113.247 115.334 113.626 115.22 114.013 115.226C114.284 115.224 114.552 115.288 114.794 115.411C115.003 115.534 115.187 115.696 115.336 115.888V113.559H116.143V120.174L115.376 120.188ZM112.809 117.793C112.787 118.264 112.922 118.73 113.193 119.116C113.303 119.256 113.444 119.369 113.604 119.447C113.765 119.525 113.941 119.566 114.119 119.566C114.292 119.564 114.462 119.524 114.618 119.449C114.774 119.373 114.91 119.264 115.019 119.129C115.297 118.747 115.428 118.277 115.389 117.806C115.433 117.293 115.302 116.78 115.019 116.351C114.907 116.208 114.765 116.092 114.602 116.012C114.439 115.931 114.261 115.889 114.079 115.888C113.903 115.89 113.73 115.931 113.572 116.009C113.414 116.087 113.275 116.199 113.166 116.337C112.88 116.766 112.754 117.281 112.809 117.793Z" fill="#231F20"/>
<path d="M120.734 120.187H119.98V113.572H120.8V115.927C120.954 115.723 121.154 115.557 121.384 115.445C121.614 115.332 121.867 115.275 122.123 115.279C122.416 115.279 122.704 115.342 122.97 115.464C123.223 115.578 123.445 115.75 123.618 115.967C123.8 116.199 123.934 116.464 124.015 116.748C124.113 117.065 124.162 117.395 124.161 117.727C124.207 118.416 123.989 119.097 123.552 119.632C123.371 119.844 123.146 120.015 122.892 120.131C122.639 120.248 122.363 120.308 122.084 120.307C121.82 120.311 121.56 120.248 121.329 120.122C121.097 119.997 120.901 119.815 120.761 119.592L120.734 120.187ZM120.734 117.74C120.694 118.193 120.772 118.649 120.959 119.063C121.062 119.25 121.214 119.406 121.397 119.515C121.581 119.625 121.79 119.683 122.004 119.685C122.184 119.685 122.361 119.644 122.522 119.563C122.683 119.483 122.823 119.366 122.93 119.222C123.177 118.803 123.307 118.325 123.307 117.839C123.307 117.353 123.177 116.875 122.93 116.456C122.825 116.318 122.689 116.205 122.533 116.127C122.377 116.049 122.205 116.008 122.031 116.007C121.851 116.009 121.675 116.052 121.515 116.132C121.354 116.212 121.214 116.328 121.105 116.47C120.839 116.838 120.709 117.287 120.734 117.74Z" fill="#231F20"/>
<path d="M125.1 122.08L124.955 121.273C125.113 121.289 125.273 121.289 125.431 121.273C125.578 121.281 125.724 121.249 125.854 121.18L126.132 120.929C126.227 120.732 126.306 120.529 126.37 120.32L126.45 120.121L124.624 115.319H125.497L126.503 118.097C126.635 118.454 126.741 118.825 126.847 119.209C126.939 118.838 127.058 118.468 127.177 118.11L128.209 115.319H129.03L127.191 120.201C127.067 120.573 126.916 120.935 126.741 121.286C126.62 121.519 126.448 121.723 126.238 121.881C126.04 122.005 125.81 122.069 125.576 122.066C125.419 122.093 125.259 122.097 125.1 122.08Z" fill="#231F20"/>
<path d="M134.123 119.434L134.242 120.148C134.036 120.171 133.827 120.171 133.621 120.148C133.384 120.162 133.147 120.117 132.933 120.016C132.78 119.934 132.659 119.803 132.589 119.645C132.506 119.33 132.475 119.004 132.496 118.679V116.02H131.901V115.385H132.496V114.141L133.303 113.652V115.332H134.123V115.967H133.303V118.772C133.282 118.921 133.282 119.073 133.303 119.222L133.449 119.381C133.54 119.405 133.635 119.405 133.726 119.381L134.123 119.434Z" fill="#231F20"/>
<path d="M134.917 120.187V113.572H135.724V115.941C135.9 115.73 136.121 115.561 136.37 115.446C136.62 115.332 136.892 115.275 137.166 115.279C137.487 115.276 137.805 115.348 138.092 115.491C138.339 115.62 138.538 115.824 138.661 116.073C138.789 116.42 138.847 116.788 138.833 117.158V120.201H138.013V117.158C138.034 116.84 137.94 116.525 137.748 116.271C137.654 116.171 137.539 116.092 137.411 116.042C137.283 115.992 137.145 115.971 137.008 115.98C136.764 115.982 136.526 116.051 136.32 116.179C136.117 116.291 135.959 116.468 135.87 116.681C135.763 116.964 135.714 117.266 135.724 117.568V120.214L134.917 120.187Z" fill="#231F20"/>
<path d="M143.358 118.64L144.192 118.746C144.087 119.197 143.83 119.599 143.464 119.883C143 120.188 142.448 120.331 141.895 120.288C141.342 120.244 140.818 120.018 140.408 119.645C139.974 119.139 139.756 118.484 139.799 117.819C139.756 117.136 139.978 116.463 140.421 115.941C140.625 115.718 140.875 115.543 141.154 115.426C141.433 115.31 141.733 115.255 142.035 115.266C142.33 115.257 142.623 115.311 142.894 115.425C143.166 115.539 143.41 115.711 143.609 115.928C144.041 116.445 144.258 117.107 144.218 117.78V117.991H140.633C140.64 118.437 140.799 118.866 141.082 119.209C141.212 119.344 141.368 119.451 141.541 119.522C141.715 119.592 141.901 119.625 142.088 119.619C142.361 119.625 142.629 119.546 142.855 119.394C143.09 119.195 143.265 118.933 143.358 118.64ZM140.712 117.317H143.358C143.356 116.992 143.249 116.676 143.054 116.417C142.935 116.265 142.782 116.143 142.607 116.06C142.433 115.978 142.241 115.937 142.048 115.941C141.699 115.935 141.361 116.068 141.109 116.311C140.844 116.58 140.692 116.94 140.686 117.317H140.712Z" fill="#231F20"/>
<path d="M147.909 120.188V113.559H152.712V114.34H148.796V116.364H152.461V117.145H148.796V119.407H152.858V120.188H147.909Z" fill="#231F20"/>
<path d="M153.77 118.11L154.604 118.031C154.631 118.32 154.722 118.6 154.869 118.851C155.04 119.083 155.274 119.262 155.543 119.367C155.865 119.504 156.212 119.572 156.562 119.566C156.865 119.57 157.166 119.516 157.448 119.407C157.674 119.336 157.873 119.197 158.017 119.01C158.134 118.843 158.198 118.645 158.203 118.441C158.21 118.24 158.144 118.042 158.017 117.885C157.855 117.709 157.65 117.577 157.422 117.502C157.037 117.37 156.644 117.264 156.245 117.184C155.79 117.089 155.347 116.947 154.921 116.761C154.638 116.624 154.396 116.414 154.22 116.152C154.062 115.903 153.98 115.614 153.982 115.319C153.981 114.983 154.082 114.655 154.273 114.379C154.476 114.078 154.767 113.847 155.107 113.718C155.494 113.565 155.907 113.488 156.324 113.493C156.777 113.48 157.227 113.561 157.647 113.731C157.994 113.875 158.291 114.117 158.502 114.427C158.714 114.737 158.83 115.102 158.838 115.478L158.031 115.464C158.023 115.285 157.979 115.11 157.902 114.949C157.825 114.787 157.715 114.643 157.581 114.525C157.24 114.29 156.829 114.178 156.417 114.207C156.013 114.175 155.61 114.272 155.265 114.485C155.151 114.566 155.058 114.673 154.993 114.797C154.929 114.922 154.895 115.06 154.895 115.2C154.893 115.31 154.916 115.42 154.961 115.521C155.007 115.622 155.075 115.711 155.16 115.782C155.562 116.032 156.013 116.194 156.483 116.258C156.984 116.355 157.475 116.497 157.951 116.682C158.292 116.82 158.586 117.055 158.798 117.356C158.984 117.634 159.081 117.962 159.076 118.296C159.073 118.653 158.967 119.002 158.772 119.301C158.553 119.62 158.251 119.872 157.898 120.029C157.482 120.213 157.03 120.299 156.575 120.28C156.059 120.302 155.545 120.211 155.067 120.016C154.677 119.858 154.345 119.586 154.114 119.235C153.901 118.898 153.782 118.509 153.77 118.11Z" fill="#231F20"/>
<path d="M160.267 120.188V113.572H163.204C163.651 113.555 164.099 113.613 164.527 113.744C164.836 113.864 165.094 114.089 165.254 114.38C165.438 114.678 165.534 115.022 165.532 115.372C165.54 115.59 165.504 115.808 165.426 116.012C165.349 116.217 165.232 116.404 165.082 116.563C164.696 116.926 164.196 117.145 163.667 117.184C163.862 117.262 164.041 117.374 164.196 117.515C164.475 117.774 164.719 118.067 164.924 118.388L166.075 120.201H164.977L164.103 118.878C163.839 118.481 163.627 118.177 163.468 117.965C163.343 117.796 163.191 117.648 163.018 117.528C162.9 117.444 162.765 117.385 162.622 117.356C162.459 117.338 162.295 117.338 162.132 117.356H161.113V120.307L160.267 120.188ZM161.14 116.483H163.018C163.341 116.498 163.664 116.453 163.971 116.351C164.183 116.281 164.365 116.141 164.487 115.954C164.598 115.775 164.657 115.569 164.659 115.359C164.661 115.213 164.632 115.069 164.572 114.937C164.513 114.804 164.425 114.686 164.315 114.591C164.006 114.365 163.626 114.257 163.243 114.287H161.14V116.483Z" fill="#231F20"/>
<path d="M166.895 120.188V113.572H169.382C169.797 113.555 170.211 113.623 170.599 113.771C170.903 113.894 171.158 114.112 171.327 114.393C171.492 114.654 171.579 114.957 171.579 115.266C171.582 115.547 171.504 115.823 171.354 116.06C171.182 116.324 170.939 116.535 170.652 116.668C171.018 116.76 171.343 116.969 171.579 117.264C171.801 117.551 171.917 117.906 171.909 118.269C171.913 118.572 171.845 118.871 171.711 119.142C171.599 119.386 171.432 119.599 171.221 119.764C171.005 119.922 170.756 120.03 170.494 120.082C170.143 120.168 169.783 120.208 169.422 120.201L166.895 120.188ZM167.781 116.338H169.21C169.49 116.349 169.771 116.322 170.044 116.258C170.245 116.211 170.423 116.094 170.547 115.927C170.668 115.763 170.728 115.562 170.719 115.358C170.725 115.153 170.67 114.95 170.56 114.776C170.461 114.607 170.3 114.483 170.11 114.432C169.781 114.354 169.442 114.323 169.104 114.34H167.781V116.338ZM167.781 119.407H169.422C169.624 119.427 169.828 119.427 170.031 119.407C170.209 119.38 170.38 119.317 170.533 119.222C170.675 119.136 170.79 119.013 170.864 118.865C170.956 118.689 171.001 118.493 170.996 118.296C171 118.07 170.935 117.849 170.811 117.661C170.684 117.476 170.497 117.34 170.282 117.277C169.964 117.185 169.633 117.145 169.303 117.158H167.781V119.407Z" fill="#231F20"/>
</g>
<defs>
<clipPath id="clip0_1_241">
<rect width="190.372" height="126.39" fill="white" transform="translate(0.588867 0.359863)"/>
</clipPath>
</defs>
</svg>
