<svg width="24" height="25" viewBox="0 0 24 25" fill="none" xmlns="http://www.w3.org/2000/svg">
<path d="M12 1.85986C9.9233 1.85986 7.89323 2.47568 6.16652 3.62943C4.4398 4.78319 3.09399 6.42306 2.29927 8.34169C1.50455 10.2603 1.29661 12.3715 1.70176 14.4083C2.1069 16.4451 3.10693 18.316 4.57538 19.7845C6.04383 21.2529 7.91476 22.253 9.95156 22.6581C11.9884 23.0633 14.0996 22.8553 16.0182 22.0606C17.9368 21.2659 19.5767 19.9201 20.7304 18.1933C21.8842 16.4666 22.5 14.4366 22.5 12.3599C22.5 9.57509 21.3938 6.90437 19.4246 4.93524C17.4555 2.96611 14.7848 1.85986 12 1.85986ZM12 21.3599C10.7226 21.3608 9.45959 21.0898 8.29501 20.5649L13.5 15.3599V12.3599L8.25 10.1099H4.5V14.6099L6.75 16.1099V19.6649C5.05694 18.4466 3.83959 16.6781 3.30607 14.6616C2.77255 12.6452 2.95598 10.506 3.825 8.60986H6.82501L9.82501 5.60986V3.65986C10.5341 3.46697 11.2651 3.36614 12 3.35986C13.2785 3.36364 14.5416 3.63977 15.705 4.16986L14.25 6.35986L15 9.35986L17.25 10.8599H18.75L19.5 13.8599L18.885 18.1499C18.0408 19.1545 16.9871 19.9624 15.7978 20.5169C14.6084 21.0714 13.3122 21.3591 12 21.3599Z" fill="white"/>
</svg>
