<svg width="105" height="26" viewBox="0 0 105 26" fill="none" xmlns="http://www.w3.org/2000/svg">
<g clip-path="url(#clip0_1_370)">
<path d="M104.99 11.9349V9.8846H102.694V6.67889L102.613 6.70155L100.46 7.43784L100.419 7.44918V9.8846H97.0169V8.5253C97.0169 7.89094 97.1388 7.41518 97.3927 7.09802C97.6466 6.78085 97.9919 6.62226 98.4388 6.62226C98.7822 6.63015 99.1207 6.7149 99.4342 6.87146L99.5154 6.91677V4.75321L99.4748 4.74187C99.064 4.60004 98.635 4.53497 98.2052 4.5493C97.5751 4.53551 96.9524 4.70328 96.3973 5.03639C95.8741 5.34997 95.4437 5.8261 95.1582 6.40704C94.8596 7.02199 94.7091 7.7128 94.7215 8.41201V9.8846H93.137V11.9462H94.7316V20.6232H97.027V11.9462H100.43V17.4628C100.43 19.7283 101.394 20.8837 103.284 20.8837C103.612 20.8802 103.938 20.8384 104.259 20.7591C104.505 20.7155 104.745 20.6315 104.97 20.5099L105 20.4872V18.4143L104.909 18.4823C104.767 18.5821 104.613 18.6584 104.452 18.7088C104.303 18.7608 104.15 18.7912 103.995 18.7994C103.548 18.7994 103.223 18.6635 103.02 18.403C102.816 18.1424 102.705 17.678 102.705 17.021V11.9576L104.99 11.9349ZM88.018 18.7881C87.1852 18.7881 86.5352 18.4823 86.068 17.8706C85.6008 17.2589 85.3671 16.398 85.3671 15.2879C85.3671 14.1551 85.6008 13.2602 86.068 12.6372C86.5352 12.0142 87.175 11.7084 87.9977 11.7084C88.79 11.7084 89.4298 12.0029 89.8767 12.5919C90.3236 13.1809 90.5674 14.0645 90.5674 15.2199C90.5674 16.3753 90.3541 17.2815 89.9174 17.8819C89.5009 18.4823 88.8611 18.7881 88.018 18.7881ZM88.1196 9.62406C86.5352 9.62406 85.2757 10.1451 84.3718 11.1646C83.4679 12.1841 83.021 13.6001 83.021 15.3785C83.021 17.055 83.4678 18.4143 84.3413 19.3998C85.2148 20.3853 86.4133 20.8837 87.886 20.8837C89.4197 20.8837 90.6588 20.3626 91.5627 19.3205C92.4667 18.2784 92.9136 16.8851 92.9136 15.1519C92.9136 13.4415 92.487 12.0822 91.644 11.108C90.801 10.1338 89.6228 9.62406 88.1196 9.62406ZM79.3239 9.62406C78.2473 9.62406 77.3535 9.92991 76.673 10.5416C76.3443 10.8189 76.0791 11.1789 75.8991 11.5924C75.719 12.0058 75.6292 12.4609 75.637 12.9204C75.6278 13.3784 75.7039 13.8336 75.8605 14.2571C76.0139 14.6444 76.247 14.9859 76.541 15.2539C76.8457 15.5371 77.3129 15.8203 77.9324 16.1261C78.3291 16.2995 78.7158 16.5 79.0903 16.7265C79.2865 16.8406 79.4594 16.9987 79.5981 17.1909C79.7001 17.374 79.7497 17.5873 79.7403 17.8026C79.7403 18.5276 79.2528 18.8787 78.2575 18.8787C77.8313 18.8656 77.4097 18.7777 77.0082 18.6182C76.5503 18.4526 76.1185 18.2079 75.7284 17.8932L75.637 17.8139V20.272L75.6675 20.2947C76.0581 20.4857 76.4671 20.6263 76.8863 20.7138C77.3132 20.8204 77.7489 20.8774 78.1864 20.8837C79.3544 20.8837 80.299 20.5779 80.9896 19.9662C81.3234 19.6805 81.592 19.3111 81.7738 18.888C81.9555 18.4648 82.0453 17.9998 82.0358 17.5307C82.0505 16.8611 81.8526 16.2072 81.4771 15.6843C81.1115 15.1859 80.4615 14.7328 79.5677 14.325C78.8567 14.0079 78.3997 13.736 78.2067 13.5321C78.0137 13.3282 77.9324 13.0563 77.9324 12.7052C77.9296 12.5552 77.9596 12.4067 78.0198 12.2725C78.0799 12.1383 78.1685 12.0224 78.2778 11.9349C78.5114 11.731 78.8465 11.6291 79.2528 11.6291C79.6459 11.6303 80.0364 11.6991 80.4107 11.833C80.7699 11.9514 81.112 12.1269 81.4264 12.354L81.5178 12.422V10.0885L81.4771 10.0658C81.1471 9.91715 80.8029 9.81075 80.4513 9.74867C80.0793 9.67226 79.7022 9.63058 79.3239 9.62406ZM69.6649 18.7881C68.832 18.7881 68.182 18.4823 67.7148 17.8706C67.2476 17.2589 67.014 16.398 67.014 15.2879C67.014 14.1551 67.2476 13.2602 67.7148 12.6372C68.182 12.0142 68.8219 11.7084 69.6446 11.7084C70.4368 11.7084 71.0767 12.0029 71.5236 12.5919C71.9705 13.1809 72.2142 14.0645 72.2142 15.2199C72.2142 16.3753 72.0009 17.2815 71.5642 17.8819C71.1275 18.4823 70.4977 18.7881 69.6649 18.7881ZM69.7665 9.62406C68.182 9.62406 66.9226 10.1451 66.0186 11.1646C65.1147 12.1841 64.6678 13.6001 64.6678 15.3785C64.6678 17.055 65.1147 18.4143 65.9882 19.3998C66.8616 20.3853 68.0601 20.8837 69.5329 20.8837C71.0665 20.8837 72.3056 20.3626 73.2096 19.3205C74.1135 18.2784 74.5604 16.8851 74.5604 15.1519C74.5604 13.4415 74.1338 12.0822 73.2908 11.108C72.4478 10.1338 71.2595 9.62406 69.7665 9.62406ZM61.184 11.7423V9.8846H58.9191V20.6232H61.184V15.1293C61.184 14.2004 61.377 13.4302 61.7528 12.8524C61.9117 12.583 62.1291 12.3627 62.3848 12.2122C62.6405 12.0617 62.9263 11.9858 63.2154 11.9916C63.4459 11.9935 63.6749 12.0317 63.8959 12.1048C64.0813 12.1553 64.2592 12.2354 64.424 12.3427L64.5154 12.422V9.87327L64.4748 9.85063C64.1917 9.73792 63.8915 9.68789 63.5912 9.70336C63.039 9.69769 62.5028 9.91039 62.0778 10.3037C61.6919 10.6549 61.4176 11.142 61.2044 11.7423H61.184ZM54.8666 9.62406C53.8306 9.62406 52.9063 9.87327 52.1141 10.3604C51.334 10.8355 50.7004 11.5618 50.2961 12.4447C49.8796 13.3282 49.6765 14.3703 49.6765 15.5258C49.6634 16.4902 49.8733 17.442 50.2859 18.2897C50.6763 19.0949 51.2648 19.7591 51.9821 20.2041C52.7438 20.658 53.5967 20.888 54.4603 20.8724C55.5369 20.8724 56.451 20.6345 57.1925 20.1587L57.2229 20.1361V17.8253L57.1315 17.9046C56.7917 18.1771 56.419 18.3945 56.0244 18.5502C55.677 18.6981 55.3094 18.7786 54.9377 18.7881C54.054 18.7881 53.3329 18.4823 52.8149 17.8706C52.2969 17.2589 52.0329 16.398 52.0329 15.3219C52.0329 14.2457 52.3071 13.3509 52.8454 12.7052C53.3837 12.0595 54.0947 11.731 54.9681 11.731C55.7096 11.731 56.4409 12.0142 57.1214 12.5693L57.2128 12.6486V10.2131L57.1823 10.1904C56.8529 10.0019 56.5004 9.86833 56.1362 9.79398C55.721 9.67812 55.2945 9.62103 54.8666 9.62406ZM48.1124 9.8846H45.8474V20.6232H48.1124V9.8846ZM47.0053 5.30825C46.8276 5.30334 46.6508 5.33786 46.4851 5.40982C46.3195 5.48177 46.1683 5.58971 46.0404 5.72737C45.9104 5.86153 45.8071 6.0246 45.7371 6.20605C45.6671 6.38751 45.632 6.58332 45.6341 6.78084C45.6306 6.97421 45.6641 7.16617 45.7324 7.34393C45.8007 7.52169 45.9023 7.68115 46.0302 7.81165C46.2923 8.082 46.6383 8.22822 46.9951 8.21944C47.355 8.22821 47.7042 8.08219 47.9702 7.81165C48.1 7.68218 48.2034 7.52318 48.2735 7.34537C48.3436 7.16755 48.3787 6.97505 48.3764 6.78084C48.3793 6.58591 48.3456 6.39246 48.2774 6.21297C48.2092 6.03347 48.108 5.87191 47.9803 5.7387C47.8528 5.59648 47.7005 5.48493 47.5328 5.4109C47.3651 5.33687 47.1856 5.30193 47.0053 5.30825ZM41.3582 9.09167V20.6232H43.6739V5.63675H40.4745L36.4118 16.7605L32.471 5.63675H29.1396V20.6119H31.3132V9.09167H31.3843L35.5485 20.6232H37.1838L41.2769 9.09167H41.3582Z" fill="white"/>
<path d="M10.6544 12.5125H0V0.629883H10.6544V12.5125Z" fill="#F35325"/>
<path d="M22.4159 12.5125H11.7615V0.629883H22.4159V12.5125Z" fill="#81BC06"/>
<path d="M10.6544 25.6298H0V13.7471H10.6544V25.6298Z" fill="#05A6F0"/>
<path d="M22.4159 25.6298H11.7615V13.7471H22.4159V25.6298Z" fill="#FFBA08"/>
</g>
<defs>
<clipPath id="clip0_1_370">
<rect width="105" height="25" fill="white" transform="translate(0 0.629883)"/>
</clipPath>
</defs>
</svg>
